<mxfile host="app.diagrams.net" modified="2024-07-03T16:27:39.500Z" agent="Mozilla/5.0 (Windows NT 10.0; Win64; x64) AppleWebKit/537.36 (KHTML, like Gecko) Chrome/126.0.0.0 Safari/537.36 Edg/126.0.0.0" etag="8BlrFSpalm8sg5MEuX22" version="24.6.4" type="device">
  <diagram name="Page-1" id="W8HooTnJlvE_5pQ80Tjt">
    <mxGraphModel dx="1551" dy="828" grid="1" gridSize="10" guides="1" tooltips="1" connect="1" arrows="1" fold="1" page="1" pageScale="1" pageWidth="850" pageHeight="1100" math="0" shadow="0">
      <root>
        <mxCell id="0" />
        <mxCell id="1" parent="0" />
        <mxCell id="m20pVpVRqxjRQ6zcthfO-1" value="Accounts" style="rounded=0;whiteSpace=wrap;html=1;" parent="1" vertex="1">
          <mxGeometry x="350" y="210" width="120" height="40" as="geometry" />
        </mxCell>
        <mxCell id="m20pVpVRqxjRQ6zcthfO-2" value="&lt;u&gt;account_id&lt;/u&gt;" style="ellipse;whiteSpace=wrap;html=1;" parent="1" vertex="1">
          <mxGeometry x="200" y="190" width="100" height="50" as="geometry" />
        </mxCell>
        <mxCell id="m20pVpVRqxjRQ6zcthfO-3" value="user_name" style="ellipse;whiteSpace=wrap;html=1;" parent="1" vertex="1">
          <mxGeometry x="270" y="120" width="80" height="40" as="geometry" />
        </mxCell>
        <mxCell id="m20pVpVRqxjRQ6zcthfO-4" value="password" style="ellipse;whiteSpace=wrap;html=1;" parent="1" vertex="1">
          <mxGeometry x="375" y="110" width="100" height="40" as="geometry" />
        </mxCell>
        <mxCell id="m20pVpVRqxjRQ6zcthfO-5" value="name" style="ellipse;whiteSpace=wrap;html=1;" parent="1" vertex="1">
          <mxGeometry x="500" y="140" width="90" height="40" as="geometry" />
        </mxCell>
        <mxCell id="m20pVpVRqxjRQ6zcthfO-6" value="role" style="ellipse;whiteSpace=wrap;html=1;" parent="1" vertex="1">
          <mxGeometry x="530" y="210" width="80" height="40" as="geometry" />
        </mxCell>
        <mxCell id="m20pVpVRqxjRQ6zcthfO-7" value="" style="endArrow=none;html=1;rounded=0;exitX=0.964;exitY=0.64;exitDx=0;exitDy=0;exitPerimeter=0;entryX=0;entryY=0.5;entryDx=0;entryDy=0;" parent="1" source="m20pVpVRqxjRQ6zcthfO-2" target="m20pVpVRqxjRQ6zcthfO-1" edge="1">
          <mxGeometry width="50" height="50" relative="1" as="geometry">
            <mxPoint x="340" y="300" as="sourcePoint" />
            <mxPoint x="390" y="250" as="targetPoint" />
          </mxGeometry>
        </mxCell>
        <mxCell id="m20pVpVRqxjRQ6zcthfO-8" value="" style="endArrow=none;html=1;rounded=0;exitX=0.75;exitY=0.93;exitDx=0;exitDy=0;exitPerimeter=0;entryX=0;entryY=0;entryDx=0;entryDy=0;" parent="1" source="m20pVpVRqxjRQ6zcthfO-3" target="m20pVpVRqxjRQ6zcthfO-1" edge="1">
          <mxGeometry width="50" height="50" relative="1" as="geometry">
            <mxPoint x="270" y="350" as="sourcePoint" />
            <mxPoint x="320" y="300" as="targetPoint" />
          </mxGeometry>
        </mxCell>
        <mxCell id="m20pVpVRqxjRQ6zcthfO-9" value="" style="endArrow=none;html=1;rounded=0;exitX=0.5;exitY=1;exitDx=0;exitDy=0;entryX=0.5;entryY=0;entryDx=0;entryDy=0;" parent="1" source="m20pVpVRqxjRQ6zcthfO-4" target="m20pVpVRqxjRQ6zcthfO-1" edge="1">
          <mxGeometry width="50" height="50" relative="1" as="geometry">
            <mxPoint x="340" y="300" as="sourcePoint" />
            <mxPoint x="390" y="250" as="targetPoint" />
          </mxGeometry>
        </mxCell>
        <mxCell id="m20pVpVRqxjRQ6zcthfO-10" value="" style="endArrow=none;html=1;rounded=0;exitX=0.827;exitY=-0.02;exitDx=0;exitDy=0;exitPerimeter=0;" parent="1" source="m20pVpVRqxjRQ6zcthfO-1" target="m20pVpVRqxjRQ6zcthfO-5" edge="1">
          <mxGeometry width="50" height="50" relative="1" as="geometry">
            <mxPoint x="200" y="350" as="sourcePoint" />
            <mxPoint x="250" y="300" as="targetPoint" />
          </mxGeometry>
        </mxCell>
        <mxCell id="m20pVpVRqxjRQ6zcthfO-11" value="" style="endArrow=none;html=1;rounded=0;exitX=1;exitY=0.5;exitDx=0;exitDy=0;entryX=0;entryY=0.5;entryDx=0;entryDy=0;" parent="1" source="m20pVpVRqxjRQ6zcthfO-1" target="m20pVpVRqxjRQ6zcthfO-6" edge="1">
          <mxGeometry width="50" height="50" relative="1" as="geometry">
            <mxPoint x="450" y="380" as="sourcePoint" />
            <mxPoint x="500" y="330" as="targetPoint" />
          </mxGeometry>
        </mxCell>
        <mxCell id="m20pVpVRqxjRQ6zcthfO-12" value="Bills" style="rounded=0;whiteSpace=wrap;html=1;" parent="1" vertex="1">
          <mxGeometry x="860" y="200" width="120" height="40" as="geometry" />
        </mxCell>
        <mxCell id="m20pVpVRqxjRQ6zcthfO-13" value="&lt;u&gt;bill_id&lt;/u&gt;" style="ellipse;whiteSpace=wrap;html=1;" parent="1" vertex="1">
          <mxGeometry x="790" y="202.5" width="60" height="25" as="geometry" />
        </mxCell>
        <mxCell id="m20pVpVRqxjRQ6zcthfO-17" value="&lt;span style=&quot;text-align: left; text-wrap: nowrap;&quot;&gt;created_at&amp;nbsp;&lt;/span&gt;" style="ellipse;whiteSpace=wrap;html=1;" parent="1" vertex="1">
          <mxGeometry x="875" y="150" width="80" height="30" as="geometry" />
        </mxCell>
        <mxCell id="m20pVpVRqxjRQ6zcthfO-18" value="" style="endArrow=none;html=1;rounded=0;exitX=0.964;exitY=0.64;exitDx=0;exitDy=0;exitPerimeter=0;entryX=0;entryY=0.5;entryDx=0;entryDy=0;" parent="1" source="m20pVpVRqxjRQ6zcthfO-13" target="m20pVpVRqxjRQ6zcthfO-12" edge="1">
          <mxGeometry width="50" height="50" relative="1" as="geometry">
            <mxPoint x="850" y="290" as="sourcePoint" />
            <mxPoint x="900" y="240" as="targetPoint" />
          </mxGeometry>
        </mxCell>
        <mxCell id="m20pVpVRqxjRQ6zcthfO-22" value="" style="endArrow=none;html=1;rounded=0;entryX=0.584;entryY=1.039;entryDx=0;entryDy=0;entryPerimeter=0;" parent="1" target="m20pVpVRqxjRQ6zcthfO-17" edge="1">
          <mxGeometry width="50" height="50" relative="1" as="geometry">
            <mxPoint x="920" y="198" as="sourcePoint" />
            <mxPoint x="1010" y="320" as="targetPoint" />
          </mxGeometry>
        </mxCell>
        <mxCell id="m20pVpVRqxjRQ6zcthfO-23" value="&lt;span style=&quot;text-align: left; text-wrap: nowrap;&quot;&gt;updated_at&amp;nbsp;&lt;/span&gt;" style="ellipse;whiteSpace=wrap;html=1;" parent="1" vertex="1">
          <mxGeometry x="1000" y="197.5" width="80" height="30" as="geometry" />
        </mxCell>
        <mxCell id="m20pVpVRqxjRQ6zcthfO-24" value="" style="endArrow=none;html=1;rounded=0;entryX=1;entryY=0.5;entryDx=0;entryDy=0;exitX=0;exitY=0.5;exitDx=0;exitDy=0;" parent="1" source="m20pVpVRqxjRQ6zcthfO-23" target="m20pVpVRqxjRQ6zcthfO-12" edge="1">
          <mxGeometry width="50" height="50" relative="1" as="geometry">
            <mxPoint x="890" y="350" as="sourcePoint" />
            <mxPoint x="940" y="300" as="targetPoint" />
          </mxGeometry>
        </mxCell>
        <mxCell id="m20pVpVRqxjRQ6zcthfO-25" value="Tables" style="rounded=0;whiteSpace=wrap;html=1;" parent="1" vertex="1">
          <mxGeometry x="330" y="430" width="120" height="40" as="geometry" />
        </mxCell>
        <mxCell id="m20pVpVRqxjRQ6zcthfO-26" value="&lt;u&gt;table_id&lt;/u&gt;" style="ellipse;whiteSpace=wrap;html=1;" parent="1" vertex="1">
          <mxGeometry x="250" y="370" width="100" height="40" as="geometry" />
        </mxCell>
        <mxCell id="m20pVpVRqxjRQ6zcthfO-27" value="&lt;span style=&quot;text-align: left;&quot;&gt;table_name&amp;nbsp;&lt;/span&gt;" style="ellipse;whiteSpace=wrap;html=1;" parent="1" vertex="1">
          <mxGeometry x="360" y="350" width="80" height="40" as="geometry" />
        </mxCell>
        <mxCell id="m20pVpVRqxjRQ6zcthfO-28" value="&lt;span style=&quot;text-align: left;&quot;&gt;table_status&amp;nbsp;&lt;/span&gt;" style="ellipse;whiteSpace=wrap;html=1;" parent="1" vertex="1">
          <mxGeometry x="440" y="370" width="100" height="40" as="geometry" />
        </mxCell>
        <mxCell id="m20pVpVRqxjRQ6zcthfO-31" value="" style="endArrow=none;html=1;rounded=0;exitX=0.964;exitY=0.64;exitDx=0;exitDy=0;exitPerimeter=0;entryX=0.382;entryY=-0.02;entryDx=0;entryDy=0;entryPerimeter=0;" parent="1" source="m20pVpVRqxjRQ6zcthfO-26" target="m20pVpVRqxjRQ6zcthfO-25" edge="1">
          <mxGeometry width="50" height="50" relative="1" as="geometry">
            <mxPoint x="320" y="520" as="sourcePoint" />
            <mxPoint x="370" y="470" as="targetPoint" />
          </mxGeometry>
        </mxCell>
        <mxCell id="m20pVpVRqxjRQ6zcthfO-32" value="" style="endArrow=none;html=1;rounded=0;exitX=0.5;exitY=1;exitDx=0;exitDy=0;entryX=0.582;entryY=-0.04;entryDx=0;entryDy=0;entryPerimeter=0;" parent="1" source="m20pVpVRqxjRQ6zcthfO-27" target="m20pVpVRqxjRQ6zcthfO-25" edge="1">
          <mxGeometry width="50" height="50" relative="1" as="geometry">
            <mxPoint x="250" y="570" as="sourcePoint" />
            <mxPoint x="400" y="420" as="targetPoint" />
          </mxGeometry>
        </mxCell>
        <mxCell id="m20pVpVRqxjRQ6zcthfO-33" value="" style="endArrow=none;html=1;rounded=0;exitX=0.5;exitY=1;exitDx=0;exitDy=0;entryX=0.75;entryY=0;entryDx=0;entryDy=0;" parent="1" source="m20pVpVRqxjRQ6zcthfO-28" target="m20pVpVRqxjRQ6zcthfO-25" edge="1">
          <mxGeometry width="50" height="50" relative="1" as="geometry">
            <mxPoint x="320" y="520" as="sourcePoint" />
            <mxPoint x="370" y="470" as="targetPoint" />
          </mxGeometry>
        </mxCell>
        <mxCell id="m20pVpVRqxjRQ6zcthfO-49" value="Categories" style="rounded=0;whiteSpace=wrap;html=1;" parent="1" vertex="1">
          <mxGeometry x="300" y="660" width="120" height="40" as="geometry" />
        </mxCell>
        <mxCell id="m20pVpVRqxjRQ6zcthfO-50" value="&lt;u&gt;category_id&lt;/u&gt;" style="ellipse;whiteSpace=wrap;html=1;" parent="1" vertex="1">
          <mxGeometry x="260" y="580" width="100" height="40" as="geometry" />
        </mxCell>
        <mxCell id="m20pVpVRqxjRQ6zcthfO-51" value="category_name" style="ellipse;whiteSpace=wrap;html=1;" parent="1" vertex="1">
          <mxGeometry x="380" y="580" width="110" height="40" as="geometry" />
        </mxCell>
        <mxCell id="m20pVpVRqxjRQ6zcthfO-53" value="" style="endArrow=none;html=1;rounded=0;exitX=0.622;exitY=0.968;exitDx=0;exitDy=0;exitPerimeter=0;entryX=0.382;entryY=-0.02;entryDx=0;entryDy=0;entryPerimeter=0;" parent="1" source="m20pVpVRqxjRQ6zcthfO-50" target="m20pVpVRqxjRQ6zcthfO-49" edge="1">
          <mxGeometry width="50" height="50" relative="1" as="geometry">
            <mxPoint x="290" y="750" as="sourcePoint" />
            <mxPoint x="340" y="700" as="targetPoint" />
          </mxGeometry>
        </mxCell>
        <mxCell id="m20pVpVRqxjRQ6zcthfO-54" value="" style="endArrow=none;html=1;rounded=0;exitX=0.5;exitY=1;exitDx=0;exitDy=0;entryX=0.582;entryY=-0.04;entryDx=0;entryDy=0;entryPerimeter=0;" parent="1" source="m20pVpVRqxjRQ6zcthfO-51" target="m20pVpVRqxjRQ6zcthfO-49" edge="1">
          <mxGeometry width="50" height="50" relative="1" as="geometry">
            <mxPoint x="220" y="800" as="sourcePoint" />
            <mxPoint x="370" y="650" as="targetPoint" />
          </mxGeometry>
        </mxCell>
        <mxCell id="m20pVpVRqxjRQ6zcthfO-56" value="Foods" style="rounded=0;whiteSpace=wrap;html=1;" parent="1" vertex="1">
          <mxGeometry x="705" y="680" width="120" height="40" as="geometry" />
        </mxCell>
        <mxCell id="m20pVpVRqxjRQ6zcthfO-57" value="&lt;u&gt;food_id&lt;/u&gt;" style="ellipse;whiteSpace=wrap;html=1;" parent="1" vertex="1">
          <mxGeometry x="590" y="675" width="100" height="40" as="geometry" />
        </mxCell>
        <mxCell id="m20pVpVRqxjRQ6zcthfO-58" value="&lt;span style=&quot;text-align: left; text-wrap: nowrap;&quot;&gt;food_name&amp;nbsp;&lt;/span&gt;" style="ellipse;whiteSpace=wrap;html=1;" parent="1" vertex="1">
          <mxGeometry x="642.5" y="625" width="80" height="40" as="geometry" />
        </mxCell>
        <mxCell id="m20pVpVRqxjRQ6zcthfO-59" value="&lt;span style=&quot;text-align: left; text-wrap: nowrap;&quot;&gt;price&amp;nbsp;&lt;/span&gt;" style="ellipse;whiteSpace=wrap;html=1;" parent="1" vertex="1">
          <mxGeometry x="725" y="615" width="100" height="40" as="geometry" />
        </mxCell>
        <mxCell id="m20pVpVRqxjRQ6zcthfO-60" value="&lt;span style=&quot;text-align: left; text-wrap: nowrap;&quot;&gt;quantity&amp;nbsp;&lt;/span&gt;" style="ellipse;whiteSpace=wrap;html=1;" parent="1" vertex="1">
          <mxGeometry x="835" y="630" width="90" height="40" as="geometry" />
        </mxCell>
        <mxCell id="m20pVpVRqxjRQ6zcthfO-61" value="&lt;span style=&quot;text-align: left; text-wrap: nowrap;&quot;&gt;need_cooking&amp;nbsp;&lt;/span&gt;" style="ellipse;whiteSpace=wrap;html=1;" parent="1" vertex="1">
          <mxGeometry x="620" y="730" width="105" height="40" as="geometry" />
        </mxCell>
        <mxCell id="m20pVpVRqxjRQ6zcthfO-62" value="" style="endArrow=none;html=1;rounded=0;exitX=0.964;exitY=0.64;exitDx=0;exitDy=0;exitPerimeter=0;entryX=0;entryY=0.5;entryDx=0;entryDy=0;" parent="1" source="m20pVpVRqxjRQ6zcthfO-57" target="m20pVpVRqxjRQ6zcthfO-56" edge="1">
          <mxGeometry width="50" height="50" relative="1" as="geometry">
            <mxPoint x="695" y="770" as="sourcePoint" />
            <mxPoint x="745" y="720" as="targetPoint" />
          </mxGeometry>
        </mxCell>
        <mxCell id="m20pVpVRqxjRQ6zcthfO-63" value="" style="endArrow=none;html=1;rounded=0;exitX=0.75;exitY=0.93;exitDx=0;exitDy=0;exitPerimeter=0;entryX=0.163;entryY=-0.11;entryDx=0;entryDy=0;entryPerimeter=0;" parent="1" source="m20pVpVRqxjRQ6zcthfO-58" target="m20pVpVRqxjRQ6zcthfO-56" edge="1">
          <mxGeometry width="50" height="50" relative="1" as="geometry">
            <mxPoint x="625" y="820" as="sourcePoint" />
            <mxPoint x="675" y="770" as="targetPoint" />
          </mxGeometry>
        </mxCell>
        <mxCell id="m20pVpVRqxjRQ6zcthfO-64" value="" style="endArrow=none;html=1;rounded=0;exitX=0.5;exitY=1;exitDx=0;exitDy=0;entryX=0.5;entryY=0;entryDx=0;entryDy=0;" parent="1" source="m20pVpVRqxjRQ6zcthfO-59" target="m20pVpVRqxjRQ6zcthfO-56" edge="1">
          <mxGeometry width="50" height="50" relative="1" as="geometry">
            <mxPoint x="695" y="770" as="sourcePoint" />
            <mxPoint x="745" y="720" as="targetPoint" />
          </mxGeometry>
        </mxCell>
        <mxCell id="m20pVpVRqxjRQ6zcthfO-65" value="" style="endArrow=none;html=1;rounded=0;exitX=0.827;exitY=-0.02;exitDx=0;exitDy=0;exitPerimeter=0;" parent="1" source="m20pVpVRqxjRQ6zcthfO-56" target="m20pVpVRqxjRQ6zcthfO-60" edge="1">
          <mxGeometry width="50" height="50" relative="1" as="geometry">
            <mxPoint x="555" y="820" as="sourcePoint" />
            <mxPoint x="605" y="770" as="targetPoint" />
          </mxGeometry>
        </mxCell>
        <mxCell id="m20pVpVRqxjRQ6zcthfO-66" value="" style="endArrow=none;html=1;rounded=0;exitX=0.437;exitY=1.05;exitDx=0;exitDy=0;exitPerimeter=0;entryX=0.919;entryY=0.212;entryDx=0;entryDy=0;entryPerimeter=0;" parent="1" source="m20pVpVRqxjRQ6zcthfO-56" target="m20pVpVRqxjRQ6zcthfO-61" edge="1">
          <mxGeometry width="50" height="50" relative="1" as="geometry">
            <mxPoint x="805" y="850" as="sourcePoint" />
            <mxPoint x="680" y="730" as="targetPoint" />
          </mxGeometry>
        </mxCell>
        <mxCell id="m20pVpVRqxjRQ6zcthfO-67" value="&lt;span style=&quot;text-align: left; text-wrap: nowrap;&quot;&gt;food_unit&amp;nbsp;&lt;/span&gt;" style="ellipse;whiteSpace=wrap;html=1;" parent="1" vertex="1">
          <mxGeometry x="825" y="720" width="80" height="40" as="geometry" />
        </mxCell>
        <mxCell id="m20pVpVRqxjRQ6zcthfO-68" value="" style="endArrow=none;html=1;rounded=0;entryX=0.75;entryY=1;entryDx=0;entryDy=0;exitX=0;exitY=0.5;exitDx=0;exitDy=0;" parent="1" source="m20pVpVRqxjRQ6zcthfO-67" target="m20pVpVRqxjRQ6zcthfO-56" edge="1">
          <mxGeometry width="50" height="50" relative="1" as="geometry">
            <mxPoint x="735" y="830" as="sourcePoint" />
            <mxPoint x="785" y="780" as="targetPoint" />
          </mxGeometry>
        </mxCell>
        <mxCell id="m20pVpVRqxjRQ6zcthfO-69" value="&lt;span style=&quot;text-align: left; text-wrap: nowrap;&quot;&gt;quantity_sold&amp;nbsp;&lt;/span&gt;" style="ellipse;whiteSpace=wrap;html=1;" parent="1" vertex="1">
          <mxGeometry x="725" y="750" width="100" height="40" as="geometry" />
        </mxCell>
        <mxCell id="m20pVpVRqxjRQ6zcthfO-70" value="&lt;span style=&quot;color: rgba(0, 0, 0, 0); font-family: monospace; font-size: 0px; text-align: start; text-wrap: nowrap;&quot;&gt;%3CmxGraphModel%3E%3Croot%3E%3CmxCell%20id%3D%220%22%2F%3E%3CmxCell%20id%3D%221%22%20parent%3D%220%22%2F%3E%3CmxCell%20id%3D%222%22%20value%3D%22%26lt%3Bspan%20style%3D%26quot%3Btext-align%3A%20left%3B%20text-wrap%3A%20nowrap%3B%26quot%3B%26gt%3Bquantity_sold%26amp%3Bnbsp%3B%26lt%3B%2Fspan%26gt%3B%22%20style%3D%22ellipse%3BwhiteSpace%3Dwrap%3Bhtml%3D1%3B%22%20vertex%3D%221%22%20parent%3D%221%22%3E%3CmxGeometry%20x%3D%22725%22%20y%3D%22780%22%20width%3D%22100%22%20height%3D%2240%22%20as%3D%22geometry%22%2F%3E%3C%2FmxCell%3E%3C%2Froot%3E%3C%2FmxGraphModel%3E&lt;/span&gt;&lt;span style=&quot;text-align: left; text-wrap: nowrap;&quot;&gt;food_image&amp;nbsp;&lt;/span&gt;" style="ellipse;whiteSpace=wrap;html=1;" parent="1" vertex="1">
          <mxGeometry x="865" y="675" width="100" height="40" as="geometry" />
        </mxCell>
        <mxCell id="m20pVpVRqxjRQ6zcthfO-71" value="" style="endArrow=none;html=1;rounded=0;exitX=1;exitY=0.5;exitDx=0;exitDy=0;entryX=0;entryY=0.5;entryDx=0;entryDy=0;" parent="1" source="m20pVpVRqxjRQ6zcthfO-56" target="m20pVpVRqxjRQ6zcthfO-70" edge="1">
          <mxGeometry width="50" height="50" relative="1" as="geometry">
            <mxPoint x="920" y="900" as="sourcePoint" />
            <mxPoint x="970" y="850" as="targetPoint" />
          </mxGeometry>
        </mxCell>
        <mxCell id="m20pVpVRqxjRQ6zcthfO-72" value="" style="endArrow=none;html=1;rounded=0;entryX=0.597;entryY=1.07;entryDx=0;entryDy=0;entryPerimeter=0;exitX=0.5;exitY=0;exitDx=0;exitDy=0;" parent="1" source="m20pVpVRqxjRQ6zcthfO-69" target="m20pVpVRqxjRQ6zcthfO-56" edge="1">
          <mxGeometry width="50" height="50" relative="1" as="geometry">
            <mxPoint x="720" y="890" as="sourcePoint" />
            <mxPoint x="770" y="840" as="targetPoint" />
          </mxGeometry>
        </mxCell>
        <mxCell id="m20pVpVRqxjRQ6zcthfO-90" value="Accounts" style="rounded=0;whiteSpace=wrap;html=1;" parent="1" vertex="1">
          <mxGeometry x="1590" y="495" width="80" height="30" as="geometry" />
        </mxCell>
        <mxCell id="m20pVpVRqxjRQ6zcthfO-91" value="Create" style="rhombus;whiteSpace=wrap;html=1;" parent="1" vertex="1">
          <mxGeometry x="1717.5" y="490" width="65" height="40" as="geometry" />
        </mxCell>
        <mxCell id="m20pVpVRqxjRQ6zcthfO-92" value="Bills" style="rounded=0;whiteSpace=wrap;html=1;" parent="1" vertex="1">
          <mxGeometry x="1827.5" y="495" width="70" height="30" as="geometry" />
        </mxCell>
        <mxCell id="m20pVpVRqxjRQ6zcthfO-93" value="" style="endArrow=none;html=1;rounded=0;exitX=1;exitY=0.5;exitDx=0;exitDy=0;entryX=0;entryY=0.5;entryDx=0;entryDy=0;" parent="1" source="m20pVpVRqxjRQ6zcthfO-90" target="m20pVpVRqxjRQ6zcthfO-91" edge="1">
          <mxGeometry width="50" height="50" relative="1" as="geometry">
            <mxPoint x="1590" y="460" as="sourcePoint" />
            <mxPoint x="1640" y="410" as="targetPoint" />
          </mxGeometry>
        </mxCell>
        <mxCell id="m20pVpVRqxjRQ6zcthfO-94" value="1" style="edgeLabel;html=1;align=center;verticalAlign=middle;resizable=0;points=[];" parent="m20pVpVRqxjRQ6zcthfO-93" vertex="1" connectable="0">
          <mxGeometry x="-0.7217" y="2" relative="1" as="geometry">
            <mxPoint as="offset" />
          </mxGeometry>
        </mxCell>
        <mxCell id="m20pVpVRqxjRQ6zcthfO-95" value="" style="endArrow=none;html=1;rounded=0;exitX=1;exitY=0.5;exitDx=0;exitDy=0;entryX=0;entryY=0.5;entryDx=0;entryDy=0;" parent="1" source="m20pVpVRqxjRQ6zcthfO-91" target="m20pVpVRqxjRQ6zcthfO-92" edge="1">
          <mxGeometry width="50" height="50" relative="1" as="geometry">
            <mxPoint x="1850" y="450" as="sourcePoint" />
            <mxPoint x="1900" y="400" as="targetPoint" />
          </mxGeometry>
        </mxCell>
        <mxCell id="m20pVpVRqxjRQ6zcthfO-96" value="N" style="edgeLabel;html=1;align=center;verticalAlign=middle;resizable=0;points=[];" parent="m20pVpVRqxjRQ6zcthfO-95" vertex="1" connectable="0">
          <mxGeometry x="0.6275" y="3" relative="1" as="geometry">
            <mxPoint as="offset" />
          </mxGeometry>
        </mxCell>
        <mxCell id="m20pVpVRqxjRQ6zcthfO-111" value="Categories" style="rounded=0;whiteSpace=wrap;html=1;" parent="1" vertex="1">
          <mxGeometry x="1575" y="585" width="87.5" height="30" as="geometry" />
        </mxCell>
        <mxCell id="m20pVpVRqxjRQ6zcthfO-112" value="Have" style="rhombus;whiteSpace=wrap;html=1;" parent="1" vertex="1">
          <mxGeometry x="1710" y="580" width="65" height="40" as="geometry" />
        </mxCell>
        <mxCell id="m20pVpVRqxjRQ6zcthfO-113" value="Foods" style="rounded=0;whiteSpace=wrap;html=1;" parent="1" vertex="1">
          <mxGeometry x="1820" y="585" width="125" height="30" as="geometry" />
        </mxCell>
        <mxCell id="m20pVpVRqxjRQ6zcthfO-114" value="" style="endArrow=none;html=1;rounded=0;exitX=1;exitY=0.5;exitDx=0;exitDy=0;entryX=0;entryY=0.5;entryDx=0;entryDy=0;" parent="1" source="m20pVpVRqxjRQ6zcthfO-111" target="m20pVpVRqxjRQ6zcthfO-112" edge="1">
          <mxGeometry width="50" height="50" relative="1" as="geometry">
            <mxPoint x="1582.5" y="550" as="sourcePoint" />
            <mxPoint x="1632.5" y="500" as="targetPoint" />
          </mxGeometry>
        </mxCell>
        <mxCell id="m20pVpVRqxjRQ6zcthfO-115" value="1" style="edgeLabel;html=1;align=center;verticalAlign=middle;resizable=0;points=[];" parent="m20pVpVRqxjRQ6zcthfO-114" vertex="1" connectable="0">
          <mxGeometry x="-0.7217" y="2" relative="1" as="geometry">
            <mxPoint as="offset" />
          </mxGeometry>
        </mxCell>
        <mxCell id="m20pVpVRqxjRQ6zcthfO-116" value="" style="endArrow=none;html=1;rounded=0;exitX=1;exitY=0.5;exitDx=0;exitDy=0;entryX=0;entryY=0.5;entryDx=0;entryDy=0;" parent="1" source="m20pVpVRqxjRQ6zcthfO-112" target="m20pVpVRqxjRQ6zcthfO-113" edge="1">
          <mxGeometry width="50" height="50" relative="1" as="geometry">
            <mxPoint x="1842.5" y="540" as="sourcePoint" />
            <mxPoint x="1892.5" y="490" as="targetPoint" />
          </mxGeometry>
        </mxCell>
        <mxCell id="m20pVpVRqxjRQ6zcthfO-117" value="N" style="edgeLabel;html=1;align=center;verticalAlign=middle;resizable=0;points=[];" parent="m20pVpVRqxjRQ6zcthfO-116" vertex="1" connectable="0">
          <mxGeometry x="0.6275" y="3" relative="1" as="geometry">
            <mxPoint as="offset" />
          </mxGeometry>
        </mxCell>
        <mxCell id="m20pVpVRqxjRQ6zcthfO-118" value="&lt;br&gt;&lt;span style=&quot;color: rgb(0, 0, 0); font-family: Helvetica; font-size: 12px; font-style: normal; font-variant-ligatures: normal; font-variant-caps: normal; font-weight: 400; letter-spacing: normal; orphans: 2; text-indent: 0px; text-transform: none; widows: 2; word-spacing: 0px; -webkit-text-stroke-width: 0px; white-space: normal; background-color: rgb(251, 251, 251); text-decoration-thickness: initial; text-decoration-style: initial; text-decoration-color: initial; float: none; display: inline !important;&quot;&gt;Foods&lt;/span&gt;&lt;div&gt;&lt;br/&gt;&lt;/div&gt;" style="rounded=0;whiteSpace=wrap;html=1;align=center;" parent="1" vertex="1">
          <mxGeometry x="1570" y="655" width="87.5" height="30" as="geometry" />
        </mxCell>
        <mxCell id="m20pVpVRqxjRQ6zcthfO-119" value="Have" style="rhombus;whiteSpace=wrap;html=1;" parent="1" vertex="1">
          <mxGeometry x="1705" y="650" width="65" height="40" as="geometry" />
        </mxCell>
        <mxCell id="m20pVpVRqxjRQ6zcthfO-120" value="Tables" style="rounded=0;whiteSpace=wrap;html=1;" parent="1" vertex="1">
          <mxGeometry x="1815" y="655" width="125" height="30" as="geometry" />
        </mxCell>
        <mxCell id="m20pVpVRqxjRQ6zcthfO-121" value="" style="endArrow=none;html=1;rounded=0;exitX=1;exitY=0.5;exitDx=0;exitDy=0;entryX=0;entryY=0.5;entryDx=0;entryDy=0;" parent="1" source="m20pVpVRqxjRQ6zcthfO-118" target="m20pVpVRqxjRQ6zcthfO-119" edge="1">
          <mxGeometry width="50" height="50" relative="1" as="geometry">
            <mxPoint x="1577.5" y="620" as="sourcePoint" />
            <mxPoint x="1627.5" y="570" as="targetPoint" />
          </mxGeometry>
        </mxCell>
        <mxCell id="m20pVpVRqxjRQ6zcthfO-122" value="M" style="edgeLabel;html=1;align=center;verticalAlign=middle;resizable=0;points=[];" parent="m20pVpVRqxjRQ6zcthfO-121" vertex="1" connectable="0">
          <mxGeometry x="-0.7217" y="2" relative="1" as="geometry">
            <mxPoint as="offset" />
          </mxGeometry>
        </mxCell>
        <mxCell id="m20pVpVRqxjRQ6zcthfO-123" value="" style="endArrow=none;html=1;rounded=0;exitX=1;exitY=0.5;exitDx=0;exitDy=0;entryX=0;entryY=0.5;entryDx=0;entryDy=0;" parent="1" source="m20pVpVRqxjRQ6zcthfO-119" target="m20pVpVRqxjRQ6zcthfO-120" edge="1">
          <mxGeometry width="50" height="50" relative="1" as="geometry">
            <mxPoint x="1837.5" y="610" as="sourcePoint" />
            <mxPoint x="1887.5" y="560" as="targetPoint" />
          </mxGeometry>
        </mxCell>
        <mxCell id="m20pVpVRqxjRQ6zcthfO-124" value="N" style="edgeLabel;html=1;align=center;verticalAlign=middle;resizable=0;points=[];" parent="m20pVpVRqxjRQ6zcthfO-123" vertex="1" connectable="0">
          <mxGeometry x="0.6275" y="3" relative="1" as="geometry">
            <mxPoint as="offset" />
          </mxGeometry>
        </mxCell>
        <mxCell id="m20pVpVRqxjRQ6zcthfO-125" value="Accounts" style="rounded=0;whiteSpace=wrap;html=1;" parent="1" vertex="1">
          <mxGeometry x="2570" y="390" width="120" height="40" as="geometry" />
        </mxCell>
        <mxCell id="m20pVpVRqxjRQ6zcthfO-126" value="&lt;u&gt;account_id&lt;/u&gt;" style="ellipse;whiteSpace=wrap;html=1;" parent="1" vertex="1">
          <mxGeometry x="2440" y="375" width="100" height="50" as="geometry" />
        </mxCell>
        <mxCell id="m20pVpVRqxjRQ6zcthfO-127" value="user_name" style="ellipse;whiteSpace=wrap;html=1;" parent="1" vertex="1">
          <mxGeometry x="2480" y="310" width="80" height="40" as="geometry" />
        </mxCell>
        <mxCell id="m20pVpVRqxjRQ6zcthfO-128" value="password" style="ellipse;whiteSpace=wrap;html=1;" parent="1" vertex="1">
          <mxGeometry x="2570" y="305" width="100" height="40" as="geometry" />
        </mxCell>
        <mxCell id="m20pVpVRqxjRQ6zcthfO-129" value="name" style="ellipse;whiteSpace=wrap;html=1;" parent="1" vertex="1">
          <mxGeometry x="2470" y="435" width="90" height="40" as="geometry" />
        </mxCell>
        <mxCell id="m20pVpVRqxjRQ6zcthfO-130" value="role" style="ellipse;whiteSpace=wrap;html=1;" parent="1" vertex="1">
          <mxGeometry x="2580" y="465" width="80" height="40" as="geometry" />
        </mxCell>
        <mxCell id="m20pVpVRqxjRQ6zcthfO-131" value="" style="endArrow=none;html=1;rounded=0;exitX=0.964;exitY=0.64;exitDx=0;exitDy=0;exitPerimeter=0;entryX=0;entryY=0.5;entryDx=0;entryDy=0;" parent="1" source="m20pVpVRqxjRQ6zcthfO-126" target="m20pVpVRqxjRQ6zcthfO-125" edge="1">
          <mxGeometry width="50" height="50" relative="1" as="geometry">
            <mxPoint x="2550" y="490" as="sourcePoint" />
            <mxPoint x="2600" y="440" as="targetPoint" />
          </mxGeometry>
        </mxCell>
        <mxCell id="m20pVpVRqxjRQ6zcthfO-132" value="" style="endArrow=none;html=1;rounded=0;exitX=0.75;exitY=0.93;exitDx=0;exitDy=0;exitPerimeter=0;entryX=0;entryY=0;entryDx=0;entryDy=0;" parent="1" source="m20pVpVRqxjRQ6zcthfO-127" target="m20pVpVRqxjRQ6zcthfO-125" edge="1">
          <mxGeometry width="50" height="50" relative="1" as="geometry">
            <mxPoint x="2480" y="540" as="sourcePoint" />
            <mxPoint x="2530" y="490" as="targetPoint" />
          </mxGeometry>
        </mxCell>
        <mxCell id="m20pVpVRqxjRQ6zcthfO-133" value="" style="endArrow=none;html=1;rounded=0;exitX=0.5;exitY=1;exitDx=0;exitDy=0;entryX=0.5;entryY=0;entryDx=0;entryDy=0;" parent="1" source="m20pVpVRqxjRQ6zcthfO-128" target="m20pVpVRqxjRQ6zcthfO-125" edge="1">
          <mxGeometry width="50" height="50" relative="1" as="geometry">
            <mxPoint x="2550" y="490" as="sourcePoint" />
            <mxPoint x="2600" y="440" as="targetPoint" />
          </mxGeometry>
        </mxCell>
        <mxCell id="m20pVpVRqxjRQ6zcthfO-134" value="" style="endArrow=none;html=1;rounded=0;exitX=0.25;exitY=1;exitDx=0;exitDy=0;" parent="1" source="m20pVpVRqxjRQ6zcthfO-125" target="m20pVpVRqxjRQ6zcthfO-129" edge="1">
          <mxGeometry width="50" height="50" relative="1" as="geometry">
            <mxPoint x="2580" y="435" as="sourcePoint" />
            <mxPoint x="2460" y="490" as="targetPoint" />
          </mxGeometry>
        </mxCell>
        <mxCell id="m20pVpVRqxjRQ6zcthfO-135" value="" style="endArrow=none;html=1;rounded=0;exitX=0.5;exitY=1;exitDx=0;exitDy=0;entryX=0.5;entryY=0;entryDx=0;entryDy=0;" parent="1" source="m20pVpVRqxjRQ6zcthfO-125" target="m20pVpVRqxjRQ6zcthfO-130" edge="1">
          <mxGeometry width="50" height="50" relative="1" as="geometry">
            <mxPoint x="2660" y="570" as="sourcePoint" />
            <mxPoint x="2710" y="520" as="targetPoint" />
          </mxGeometry>
        </mxCell>
        <mxCell id="m20pVpVRqxjRQ6zcthfO-136" value="Bills" style="rounded=0;whiteSpace=wrap;html=1;" parent="1" vertex="1">
          <mxGeometry x="2920" y="380" width="120" height="40" as="geometry" />
        </mxCell>
        <mxCell id="m20pVpVRqxjRQ6zcthfO-137" value="&lt;u&gt;bill_id&lt;/u&gt;" style="ellipse;whiteSpace=wrap;html=1;" parent="1" vertex="1">
          <mxGeometry x="3090" y="415" width="100" height="35" as="geometry" />
        </mxCell>
        <mxCell id="m20pVpVRqxjRQ6zcthfO-140" value="&lt;span style=&quot;text-align: left; text-wrap: nowrap;&quot;&gt;created_at&amp;nbsp;&lt;/span&gt;" style="ellipse;whiteSpace=wrap;html=1;" parent="1" vertex="1">
          <mxGeometry x="3050" y="310" width="80" height="40" as="geometry" />
        </mxCell>
        <mxCell id="m20pVpVRqxjRQ6zcthfO-141" value="" style="endArrow=none;html=1;rounded=0;exitX=0;exitY=0;exitDx=0;exitDy=0;entryX=1;entryY=0.75;entryDx=0;entryDy=0;" parent="1" source="m20pVpVRqxjRQ6zcthfO-137" target="m20pVpVRqxjRQ6zcthfO-136" edge="1">
          <mxGeometry width="50" height="50" relative="1" as="geometry">
            <mxPoint x="2910" y="470" as="sourcePoint" />
            <mxPoint x="2960" y="420" as="targetPoint" />
          </mxGeometry>
        </mxCell>
        <mxCell id="m20pVpVRqxjRQ6zcthfO-144" value="" style="endArrow=none;html=1;rounded=0;exitX=0.678;exitY=-0.05;exitDx=0;exitDy=0;entryX=0.238;entryY=0.9;entryDx=0;entryDy=0;exitPerimeter=0;entryPerimeter=0;" parent="1" source="m20pVpVRqxjRQ6zcthfO-136" target="m20pVpVRqxjRQ6zcthfO-140" edge="1">
          <mxGeometry width="50" height="50" relative="1" as="geometry">
            <mxPoint x="3020" y="550" as="sourcePoint" />
            <mxPoint x="3070" y="500" as="targetPoint" />
          </mxGeometry>
        </mxCell>
        <mxCell id="m20pVpVRqxjRQ6zcthfO-145" value="&lt;span style=&quot;text-align: left; text-wrap: nowrap;&quot;&gt;updated_at&amp;nbsp;&lt;/span&gt;" style="ellipse;whiteSpace=wrap;html=1;" parent="1" vertex="1">
          <mxGeometry x="3090" y="360" width="80" height="40" as="geometry" />
        </mxCell>
        <mxCell id="m20pVpVRqxjRQ6zcthfO-146" value="" style="endArrow=none;html=1;rounded=0;entryX=1;entryY=0.5;entryDx=0;entryDy=0;exitX=0;exitY=0.5;exitDx=0;exitDy=0;" parent="1" source="m20pVpVRqxjRQ6zcthfO-145" target="m20pVpVRqxjRQ6zcthfO-136" edge="1">
          <mxGeometry width="50" height="50" relative="1" as="geometry">
            <mxPoint x="2950" y="530" as="sourcePoint" />
            <mxPoint x="3000" y="480" as="targetPoint" />
          </mxGeometry>
        </mxCell>
        <mxCell id="m20pVpVRqxjRQ6zcthfO-147" value="Create" style="rhombus;whiteSpace=wrap;html=1;" parent="1" vertex="1">
          <mxGeometry x="2760" y="390" width="65" height="40" as="geometry" />
        </mxCell>
        <mxCell id="m20pVpVRqxjRQ6zcthfO-148" value="" style="endArrow=none;html=1;rounded=0;exitX=1;exitY=0.5;exitDx=0;exitDy=0;entryX=0;entryY=0.5;entryDx=0;entryDy=0;" parent="1" source="m20pVpVRqxjRQ6zcthfO-125" target="m20pVpVRqxjRQ6zcthfO-147" edge="1">
          <mxGeometry width="50" height="50" relative="1" as="geometry">
            <mxPoint x="2690" y="410" as="sourcePoint" />
            <mxPoint x="2659.5" y="310" as="targetPoint" />
          </mxGeometry>
        </mxCell>
        <mxCell id="m20pVpVRqxjRQ6zcthfO-149" value="1" style="edgeLabel;html=1;align=center;verticalAlign=middle;resizable=0;points=[];" parent="m20pVpVRqxjRQ6zcthfO-148" vertex="1" connectable="0">
          <mxGeometry x="-0.7217" y="2" relative="1" as="geometry">
            <mxPoint as="offset" />
          </mxGeometry>
        </mxCell>
        <mxCell id="m20pVpVRqxjRQ6zcthfO-150" value="N" style="edgeLabel;html=1;align=center;verticalAlign=middle;resizable=0;points=[];" parent="1" vertex="1" connectable="0">
          <mxGeometry x="2839.142857142857" y="407.0000000000002" as="geometry">
            <mxPoint x="50" y="-1" as="offset" />
          </mxGeometry>
        </mxCell>
        <mxCell id="m20pVpVRqxjRQ6zcthfO-151" value="" style="endArrow=none;html=1;rounded=0;exitX=1;exitY=0.5;exitDx=0;exitDy=0;entryX=0;entryY=0.75;entryDx=0;entryDy=0;" parent="1" source="m20pVpVRqxjRQ6zcthfO-147" target="m20pVpVRqxjRQ6zcthfO-136" edge="1">
          <mxGeometry width="50" height="50" relative="1" as="geometry">
            <mxPoint x="2890" y="485" as="sourcePoint" />
            <mxPoint x="2940" y="435" as="targetPoint" />
          </mxGeometry>
        </mxCell>
        <mxCell id="m20pVpVRqxjRQ6zcthfO-152" value="Categories" style="rounded=0;whiteSpace=wrap;html=1;" parent="1" vertex="1">
          <mxGeometry x="3113.36" y="635" width="120" height="40" as="geometry" />
        </mxCell>
        <mxCell id="m20pVpVRqxjRQ6zcthfO-153" value="&lt;u&gt;category_id&lt;/u&gt;" style="ellipse;whiteSpace=wrap;html=1;" parent="1" vertex="1">
          <mxGeometry x="3200" y="570" width="100" height="40" as="geometry" />
        </mxCell>
        <mxCell id="m20pVpVRqxjRQ6zcthfO-154" value="category_name" style="ellipse;whiteSpace=wrap;html=1;" parent="1" vertex="1">
          <mxGeometry x="3080" y="560" width="110" height="40" as="geometry" />
        </mxCell>
        <mxCell id="m20pVpVRqxjRQ6zcthfO-155" value="" style="endArrow=none;html=1;rounded=0;exitX=0.277;exitY=1.004;exitDx=0;exitDy=0;entryX=0.667;entryY=-0.086;entryDx=0;entryDy=0;entryPerimeter=0;exitPerimeter=0;" parent="1" source="m20pVpVRqxjRQ6zcthfO-153" target="m20pVpVRqxjRQ6zcthfO-152" edge="1">
          <mxGeometry width="50" height="50" relative="1" as="geometry">
            <mxPoint x="3080" y="725" as="sourcePoint" />
            <mxPoint x="3170" y="680" as="targetPoint" />
          </mxGeometry>
        </mxCell>
        <mxCell id="m20pVpVRqxjRQ6zcthfO-156" value="" style="endArrow=none;html=1;rounded=0;exitX=0.5;exitY=1;exitDx=0;exitDy=0;entryX=0.5;entryY=0;entryDx=0;entryDy=0;" parent="1" source="m20pVpVRqxjRQ6zcthfO-154" target="m20pVpVRqxjRQ6zcthfO-152" edge="1">
          <mxGeometry width="50" height="50" relative="1" as="geometry">
            <mxPoint x="3010" y="775" as="sourcePoint" />
            <mxPoint x="3120" y="633" as="targetPoint" />
          </mxGeometry>
        </mxCell>
        <mxCell id="m20pVpVRqxjRQ6zcthfO-157" value="Foods" style="rounded=0;whiteSpace=wrap;html=1;" parent="1" vertex="1">
          <mxGeometry x="2910" y="775" width="120" height="40" as="geometry" />
        </mxCell>
        <mxCell id="m20pVpVRqxjRQ6zcthfO-158" value="&lt;u&gt;food_id&lt;/u&gt;" style="ellipse;whiteSpace=wrap;html=1;" parent="1" vertex="1">
          <mxGeometry x="2810" y="855" width="80" height="30" as="geometry" />
        </mxCell>
        <mxCell id="m20pVpVRqxjRQ6zcthfO-159" value="&lt;span style=&quot;text-align: left; text-wrap: nowrap;&quot;&gt;food_name&amp;nbsp;&lt;/span&gt;" style="ellipse;whiteSpace=wrap;html=1;" parent="1" vertex="1">
          <mxGeometry x="2790" y="810" width="80" height="30" as="geometry" />
        </mxCell>
        <mxCell id="m20pVpVRqxjRQ6zcthfO-160" value="&lt;span style=&quot;text-align: left; text-wrap: nowrap;&quot;&gt;price&amp;nbsp;&lt;/span&gt;" style="ellipse;whiteSpace=wrap;html=1;" parent="1" vertex="1">
          <mxGeometry x="3130" y="795" width="80" height="40" as="geometry" />
        </mxCell>
        <mxCell id="m20pVpVRqxjRQ6zcthfO-161" value="&lt;span style=&quot;text-align: left; text-wrap: nowrap;&quot;&gt;quantity&amp;nbsp;&lt;/span&gt;" style="ellipse;whiteSpace=wrap;html=1;" parent="1" vertex="1">
          <mxGeometry x="3105" y="845" width="90" height="40" as="geometry" />
        </mxCell>
        <mxCell id="m20pVpVRqxjRQ6zcthfO-162" value="&lt;span style=&quot;text-align: left; text-wrap: nowrap;&quot;&gt;need_cooking&amp;nbsp;&lt;/span&gt;" style="ellipse;whiteSpace=wrap;html=1;" parent="1" vertex="1">
          <mxGeometry x="2819.14" y="895" width="105" height="40" as="geometry" />
        </mxCell>
        <mxCell id="m20pVpVRqxjRQ6zcthfO-163" value="" style="endArrow=none;html=1;rounded=0;exitX=0.768;exitY=0.098;exitDx=0;exitDy=0;exitPerimeter=0;entryX=0.25;entryY=1;entryDx=0;entryDy=0;" parent="1" source="m20pVpVRqxjRQ6zcthfO-158" target="m20pVpVRqxjRQ6zcthfO-157" edge="1">
          <mxGeometry width="50" height="50" relative="1" as="geometry">
            <mxPoint x="2900" y="865" as="sourcePoint" />
            <mxPoint x="2950" y="815" as="targetPoint" />
          </mxGeometry>
        </mxCell>
        <mxCell id="m20pVpVRqxjRQ6zcthfO-164" value="" style="endArrow=none;html=1;rounded=0;exitX=1;exitY=0.5;exitDx=0;exitDy=0;entryX=0;entryY=0.5;entryDx=0;entryDy=0;" parent="1" source="m20pVpVRqxjRQ6zcthfO-159" target="m20pVpVRqxjRQ6zcthfO-157" edge="1">
          <mxGeometry width="50" height="50" relative="1" as="geometry">
            <mxPoint x="2830" y="915" as="sourcePoint" />
            <mxPoint x="2880" y="865" as="targetPoint" />
          </mxGeometry>
        </mxCell>
        <mxCell id="m20pVpVRqxjRQ6zcthfO-165" value="" style="endArrow=none;html=1;rounded=0;exitX=-0.019;exitY=0.69;exitDx=0;exitDy=0;entryX=1;entryY=0.5;entryDx=0;entryDy=0;exitPerimeter=0;" parent="1" source="m20pVpVRqxjRQ6zcthfO-160" target="m20pVpVRqxjRQ6zcthfO-157" edge="1">
          <mxGeometry width="50" height="50" relative="1" as="geometry">
            <mxPoint x="2900" y="865" as="sourcePoint" />
            <mxPoint x="2950" y="815" as="targetPoint" />
          </mxGeometry>
        </mxCell>
        <mxCell id="m20pVpVRqxjRQ6zcthfO-166" value="" style="endArrow=none;html=1;rounded=0;exitX=1;exitY=0.5;exitDx=0;exitDy=0;" parent="1" source="m20pVpVRqxjRQ6zcthfO-157" target="m20pVpVRqxjRQ6zcthfO-161" edge="1">
          <mxGeometry width="50" height="50" relative="1" as="geometry">
            <mxPoint x="2760" y="915" as="sourcePoint" />
            <mxPoint x="2810" y="865" as="targetPoint" />
          </mxGeometry>
        </mxCell>
        <mxCell id="m20pVpVRqxjRQ6zcthfO-167" value="" style="endArrow=none;html=1;rounded=0;exitX=0.437;exitY=1.05;exitDx=0;exitDy=0;entryX=0.5;entryY=0;entryDx=0;entryDy=0;exitPerimeter=0;" parent="1" source="m20pVpVRqxjRQ6zcthfO-157" target="m20pVpVRqxjRQ6zcthfO-162" edge="1">
          <mxGeometry width="50" height="50" relative="1" as="geometry">
            <mxPoint x="3010" y="945" as="sourcePoint" />
            <mxPoint x="3060" y="895" as="targetPoint" />
          </mxGeometry>
        </mxCell>
        <mxCell id="m20pVpVRqxjRQ6zcthfO-168" value="&lt;span style=&quot;text-align: left; text-wrap: nowrap;&quot;&gt;food_unit&amp;nbsp;&lt;/span&gt;" style="ellipse;whiteSpace=wrap;html=1;" parent="1" vertex="1">
          <mxGeometry x="2995" y="925" width="80" height="40" as="geometry" />
        </mxCell>
        <mxCell id="m20pVpVRqxjRQ6zcthfO-169" value="" style="endArrow=none;html=1;rounded=0;entryX=0.75;entryY=1;entryDx=0;entryDy=0;exitX=0.426;exitY=-0.007;exitDx=0;exitDy=0;exitPerimeter=0;" parent="1" source="m20pVpVRqxjRQ6zcthfO-168" target="m20pVpVRqxjRQ6zcthfO-157" edge="1">
          <mxGeometry width="50" height="50" relative="1" as="geometry">
            <mxPoint x="2940" y="925" as="sourcePoint" />
            <mxPoint x="2990" y="875" as="targetPoint" />
          </mxGeometry>
        </mxCell>
        <mxCell id="m20pVpVRqxjRQ6zcthfO-170" value="&lt;span style=&quot;text-align: left; text-wrap: nowrap;&quot;&gt;quantity_sold&amp;nbsp;&lt;/span&gt;" style="ellipse;whiteSpace=wrap;html=1;" parent="1" vertex="1">
          <mxGeometry x="2890" y="935" width="100" height="40" as="geometry" />
        </mxCell>
        <mxCell id="m20pVpVRqxjRQ6zcthfO-171" value="&lt;span style=&quot;color: rgba(0, 0, 0, 0); font-family: monospace; font-size: 0px; text-align: start; text-wrap: nowrap;&quot;&gt;%3CmxGraphModel%3E%3Croot%3E%3CmxCell%20id%3D%220%22%2F%3E%3CmxCell%20id%3D%221%22%20parent%3D%220%22%2F%3E%3CmxCell%20id%3D%222%22%20value%3D%22%26lt%3Bspan%20style%3D%26quot%3Btext-align%3A%20left%3B%20text-wrap%3A%20nowrap%3B%26quot%3B%26gt%3Bquantity_sold%26amp%3Bnbsp%3B%26lt%3B%2Fspan%26gt%3B%22%20style%3D%22ellipse%3BwhiteSpace%3Dwrap%3Bhtml%3D1%3B%22%20vertex%3D%221%22%20parent%3D%221%22%3E%3CmxGeometry%20x%3D%22725%22%20y%3D%22780%22%20width%3D%22100%22%20height%3D%2240%22%20as%3D%22geometry%22%2F%3E%3C%2FmxCell%3E%3C%2Froot%3E%3C%2FmxGraphModel%3E&lt;/span&gt;&lt;span style=&quot;text-align: left; text-wrap: nowrap;&quot;&gt;food_image&amp;nbsp;&lt;/span&gt;" style="ellipse;whiteSpace=wrap;html=1;" parent="1" vertex="1">
          <mxGeometry x="3070" y="895" width="100" height="40" as="geometry" />
        </mxCell>
        <mxCell id="m20pVpVRqxjRQ6zcthfO-172" value="" style="endArrow=none;html=1;rounded=0;exitX=1;exitY=0.5;exitDx=0;exitDy=0;entryX=0.261;entryY=0.021;entryDx=0;entryDy=0;entryPerimeter=0;" parent="1" source="m20pVpVRqxjRQ6zcthfO-157" target="m20pVpVRqxjRQ6zcthfO-171" edge="1">
          <mxGeometry width="50" height="50" relative="1" as="geometry">
            <mxPoint x="3125" y="995" as="sourcePoint" />
            <mxPoint x="3175" y="945" as="targetPoint" />
          </mxGeometry>
        </mxCell>
        <mxCell id="m20pVpVRqxjRQ6zcthfO-173" value="" style="endArrow=none;html=1;rounded=0;entryX=0.597;entryY=1.07;entryDx=0;entryDy=0;entryPerimeter=0;exitX=0.5;exitY=0;exitDx=0;exitDy=0;" parent="1" source="m20pVpVRqxjRQ6zcthfO-170" target="m20pVpVRqxjRQ6zcthfO-157" edge="1">
          <mxGeometry width="50" height="50" relative="1" as="geometry">
            <mxPoint x="2925" y="985" as="sourcePoint" />
            <mxPoint x="2975" y="935" as="targetPoint" />
          </mxGeometry>
        </mxCell>
        <mxCell id="m20pVpVRqxjRQ6zcthfO-178" value="" style="endArrow=none;html=1;rounded=0;exitX=1;exitY=0;exitDx=0;exitDy=0;entryX=0.5;entryY=1;entryDx=0;entryDy=0;" parent="1" source="m20pVpVRqxjRQ6zcthfO-157" edge="1" target="aMwtx3vDjPb2OYbmK0GX-15">
          <mxGeometry width="50" height="50" relative="1" as="geometry">
            <mxPoint x="3060" y="705" as="sourcePoint" />
            <mxPoint x="3116.6400000000003" y="705" as="targetPoint" />
          </mxGeometry>
        </mxCell>
        <mxCell id="m20pVpVRqxjRQ6zcthfO-193" value="Have" style="rhombus;whiteSpace=wrap;html=1;" parent="1" vertex="1">
          <mxGeometry x="2945" y="585" width="65" height="40" as="geometry" />
        </mxCell>
        <mxCell id="m20pVpVRqxjRQ6zcthfO-194" value="" style="endArrow=none;html=1;rounded=0;exitX=0.5;exitY=1;exitDx=0;exitDy=0;entryX=0.5;entryY=0;entryDx=0;entryDy=0;" parent="1" source="m20pVpVRqxjRQ6zcthfO-136" target="m20pVpVRqxjRQ6zcthfO-193" edge="1">
          <mxGeometry width="50" height="50" relative="1" as="geometry">
            <mxPoint x="2980" y="685" as="sourcePoint" />
            <mxPoint x="2852.5" y="650" as="targetPoint" />
          </mxGeometry>
        </mxCell>
        <mxCell id="aMwtx3vDjPb2OYbmK0GX-9" value="M" style="edgeLabel;html=1;align=center;verticalAlign=middle;resizable=0;points=[];" parent="m20pVpVRqxjRQ6zcthfO-194" vertex="1" connectable="0">
          <mxGeometry x="-0.7122" y="-1" relative="1" as="geometry">
            <mxPoint x="11" y="6" as="offset" />
          </mxGeometry>
        </mxCell>
        <mxCell id="m20pVpVRqxjRQ6zcthfO-196" value="" style="endArrow=none;html=1;rounded=0;exitX=0.5;exitY=1;exitDx=0;exitDy=0;entryX=0.578;entryY=-0.1;entryDx=0;entryDy=0;entryPerimeter=0;" parent="1" source="m20pVpVRqxjRQ6zcthfO-193" target="m20pVpVRqxjRQ6zcthfO-157" edge="1">
          <mxGeometry width="50" height="50" relative="1" as="geometry">
            <mxPoint x="3062.5" y="690" as="sourcePoint" />
            <mxPoint x="3040" y="750" as="targetPoint" />
          </mxGeometry>
        </mxCell>
        <mxCell id="m20pVpVRqxjRQ6zcthfO-197" value="N" style="edgeLabel;html=1;align=center;verticalAlign=middle;resizable=0;points=[];" parent="m20pVpVRqxjRQ6zcthfO-196" vertex="1" connectable="0">
          <mxGeometry x="0.6275" y="3" relative="1" as="geometry">
            <mxPoint x="8" y="4" as="offset" />
          </mxGeometry>
        </mxCell>
        <mxCell id="aMwtx3vDjPb2OYbmK0GX-1" value="Tables" style="rounded=0;whiteSpace=wrap;html=1;" parent="1" vertex="1">
          <mxGeometry x="2560" y="615.81" width="120" height="40" as="geometry" />
        </mxCell>
        <mxCell id="aMwtx3vDjPb2OYbmK0GX-2" value="&lt;u&gt;table_id&lt;/u&gt;" style="ellipse;whiteSpace=wrap;html=1;" parent="1" vertex="1">
          <mxGeometry x="2480" y="555.81" width="100" height="40" as="geometry" />
        </mxCell>
        <mxCell id="aMwtx3vDjPb2OYbmK0GX-3" value="&lt;span style=&quot;text-align: left;&quot;&gt;table_name&amp;nbsp;&lt;/span&gt;" style="ellipse;whiteSpace=wrap;html=1;" parent="1" vertex="1">
          <mxGeometry x="2590" y="535.81" width="80" height="40" as="geometry" />
        </mxCell>
        <mxCell id="aMwtx3vDjPb2OYbmK0GX-4" value="&lt;span style=&quot;text-align: left;&quot;&gt;table_status&amp;nbsp;&lt;/span&gt;" style="ellipse;whiteSpace=wrap;html=1;" parent="1" vertex="1">
          <mxGeometry x="2440" y="625.81" width="100" height="40" as="geometry" />
        </mxCell>
        <mxCell id="aMwtx3vDjPb2OYbmK0GX-5" value="" style="endArrow=none;html=1;rounded=0;exitX=0.964;exitY=0.64;exitDx=0;exitDy=0;exitPerimeter=0;entryX=0.382;entryY=-0.02;entryDx=0;entryDy=0;entryPerimeter=0;" parent="1" source="aMwtx3vDjPb2OYbmK0GX-2" target="aMwtx3vDjPb2OYbmK0GX-1" edge="1">
          <mxGeometry width="50" height="50" relative="1" as="geometry">
            <mxPoint x="2550" y="705.81" as="sourcePoint" />
            <mxPoint x="2600" y="655.81" as="targetPoint" />
          </mxGeometry>
        </mxCell>
        <mxCell id="aMwtx3vDjPb2OYbmK0GX-6" value="" style="endArrow=none;html=1;rounded=0;exitX=0.5;exitY=1;exitDx=0;exitDy=0;entryX=0.582;entryY=-0.04;entryDx=0;entryDy=0;entryPerimeter=0;" parent="1" source="aMwtx3vDjPb2OYbmK0GX-3" target="aMwtx3vDjPb2OYbmK0GX-1" edge="1">
          <mxGeometry width="50" height="50" relative="1" as="geometry">
            <mxPoint x="2480" y="755.81" as="sourcePoint" />
            <mxPoint x="2630" y="605.81" as="targetPoint" />
          </mxGeometry>
        </mxCell>
        <mxCell id="aMwtx3vDjPb2OYbmK0GX-7" value="" style="endArrow=none;html=1;rounded=0;exitX=0.928;exitY=0.175;exitDx=0;exitDy=0;entryX=0;entryY=0.5;entryDx=0;entryDy=0;exitPerimeter=0;" parent="1" source="aMwtx3vDjPb2OYbmK0GX-4" target="aMwtx3vDjPb2OYbmK0GX-1" edge="1">
          <mxGeometry width="50" height="50" relative="1" as="geometry">
            <mxPoint x="2550" y="705.81" as="sourcePoint" />
            <mxPoint x="2600" y="655.81" as="targetPoint" />
          </mxGeometry>
        </mxCell>
        <mxCell id="aMwtx3vDjPb2OYbmK0GX-10" value="Have" style="rhombus;whiteSpace=wrap;html=1;" parent="1" vertex="1">
          <mxGeometry x="2770" y="540" width="65" height="40" as="geometry" />
        </mxCell>
        <mxCell id="aMwtx3vDjPb2OYbmK0GX-11" value="" style="endArrow=none;html=1;rounded=0;exitX=1;exitY=0.5;exitDx=0;exitDy=0;entryX=0;entryY=0.5;entryDx=0;entryDy=0;" parent="1" source="aMwtx3vDjPb2OYbmK0GX-1" target="aMwtx3vDjPb2OYbmK0GX-10" edge="1">
          <mxGeometry width="50" height="50" relative="1" as="geometry">
            <mxPoint x="2690" y="670" as="sourcePoint" />
            <mxPoint x="2740" y="620" as="targetPoint" />
          </mxGeometry>
        </mxCell>
        <mxCell id="aMwtx3vDjPb2OYbmK0GX-13" value="1" style="edgeLabel;html=1;align=center;verticalAlign=middle;resizable=0;points=[];" parent="aMwtx3vDjPb2OYbmK0GX-11" vertex="1" connectable="0">
          <mxGeometry x="-0.552" y="4" relative="1" as="geometry">
            <mxPoint as="offset" />
          </mxGeometry>
        </mxCell>
        <mxCell id="aMwtx3vDjPb2OYbmK0GX-12" value="" style="endArrow=none;html=1;rounded=0;exitX=1;exitY=0.5;exitDx=0;exitDy=0;entryX=0.125;entryY=1.019;entryDx=0;entryDy=0;entryPerimeter=0;" parent="1" source="aMwtx3vDjPb2OYbmK0GX-10" target="m20pVpVRqxjRQ6zcthfO-136" edge="1">
          <mxGeometry width="50" height="50" relative="1" as="geometry">
            <mxPoint x="2850" y="540" as="sourcePoint" />
            <mxPoint x="2900" y="490" as="targetPoint" />
          </mxGeometry>
        </mxCell>
        <mxCell id="aMwtx3vDjPb2OYbmK0GX-14" value="N" style="edgeLabel;html=1;align=center;verticalAlign=middle;resizable=0;points=[];" parent="aMwtx3vDjPb2OYbmK0GX-12" vertex="1" connectable="0">
          <mxGeometry x="0.6105" y="1" relative="1" as="geometry">
            <mxPoint x="1" as="offset" />
          </mxGeometry>
        </mxCell>
        <mxCell id="aMwtx3vDjPb2OYbmK0GX-15" value="Have" style="rhombus;whiteSpace=wrap;html=1;" parent="1" vertex="1">
          <mxGeometry x="3070.0000000000005" y="725" width="65" height="40" as="geometry" />
        </mxCell>
        <mxCell id="aMwtx3vDjPb2OYbmK0GX-16" value="" style="endArrow=none;html=1;rounded=0;exitX=0.5;exitY=0;exitDx=0;exitDy=0;entryX=0.433;entryY=1.069;entryDx=0;entryDy=0;entryPerimeter=0;" parent="1" source="aMwtx3vDjPb2OYbmK0GX-15" target="m20pVpVRqxjRQ6zcthfO-152" edge="1">
          <mxGeometry width="50" height="50" relative="1" as="geometry">
            <mxPoint x="3173.6800000000003" y="700" as="sourcePoint" />
            <mxPoint x="3240" y="760.0000000000002" as="targetPoint" />
          </mxGeometry>
        </mxCell>
        <mxCell id="aMwtx3vDjPb2OYbmK0GX-17" value="N" style="edgeLabel;html=1;align=center;verticalAlign=middle;resizable=0;points=[];" parent="aMwtx3vDjPb2OYbmK0GX-16" vertex="1" connectable="0">
          <mxGeometry x="0.6275" y="3" relative="1" as="geometry">
            <mxPoint x="-112" y="81" as="offset" />
          </mxGeometry>
        </mxCell>
        <mxCell id="aMwtx3vDjPb2OYbmK0GX-18" value="1" style="edgeLabel;html=1;align=center;verticalAlign=middle;resizable=0;points=[];" parent="1" vertex="1" connectable="0">
          <mxGeometry x="3079.997142857143" y="645" as="geometry">
            <mxPoint x="93" y="51" as="offset" />
          </mxGeometry>
        </mxCell>
        <mxCell id="aMwtx3vDjPb2OYbmK0GX-19" value="Have" style="rhombus;whiteSpace=wrap;html=1;" parent="1" vertex="1">
          <mxGeometry x="2597.5" y="755" width="65" height="40" as="geometry" />
        </mxCell>
        <mxCell id="aMwtx3vDjPb2OYbmK0GX-21" value="" style="endArrow=none;html=1;rounded=0;exitX=1;exitY=0.5;exitDx=0;exitDy=0;entryX=0;entryY=0;entryDx=0;entryDy=0;" parent="1" source="aMwtx3vDjPb2OYbmK0GX-19" target="m20pVpVRqxjRQ6zcthfO-157" edge="1">
          <mxGeometry width="50" height="50" relative="1" as="geometry">
            <mxPoint x="2840" y="735" as="sourcePoint" />
            <mxPoint x="2890" y="685" as="targetPoint" />
          </mxGeometry>
        </mxCell>
        <mxCell id="aMwtx3vDjPb2OYbmK0GX-22" value="N" style="edgeLabel;html=1;align=center;verticalAlign=middle;resizable=0;points=[];" parent="aMwtx3vDjPb2OYbmK0GX-21" vertex="1" connectable="0">
          <mxGeometry x="0.3625" relative="1" as="geometry">
            <mxPoint x="19" y="-3" as="offset" />
          </mxGeometry>
        </mxCell>
        <mxCell id="aMwtx3vDjPb2OYbmK0GX-48" value="&lt;span style=&quot;text-wrap: nowrap;&quot;&gt;Waiter_notifications&lt;/span&gt;" style="rounded=0;whiteSpace=wrap;html=1;" parent="1" vertex="1">
          <mxGeometry x="835" y="375" width="120" height="40" as="geometry" />
        </mxCell>
        <mxCell id="aMwtx3vDjPb2OYbmK0GX-49" value="&lt;u&gt;notification_id&lt;/u&gt;" style="ellipse;whiteSpace=wrap;html=1;" parent="1" vertex="1">
          <mxGeometry x="980" y="350" width="100" height="40" as="geometry" />
        </mxCell>
        <mxCell id="aMwtx3vDjPb2OYbmK0GX-50" value="&lt;span style=&quot;text-align: left;&quot;&gt;notification_status&amp;nbsp;&lt;/span&gt;" style="ellipse;whiteSpace=wrap;html=1;" parent="1" vertex="1">
          <mxGeometry x="970" y="395" width="120" height="40" as="geometry" />
        </mxCell>
        <mxCell id="aMwtx3vDjPb2OYbmK0GX-51" value="" style="endArrow=none;html=1;rounded=0;exitX=0.04;exitY=0.689;exitDx=0;exitDy=0;entryX=1;entryY=0.25;entryDx=0;entryDy=0;exitPerimeter=0;" parent="1" source="aMwtx3vDjPb2OYbmK0GX-49" target="aMwtx3vDjPb2OYbmK0GX-48" edge="1">
          <mxGeometry width="50" height="50" relative="1" as="geometry">
            <mxPoint x="825" y="465" as="sourcePoint" />
            <mxPoint x="875" y="415" as="targetPoint" />
          </mxGeometry>
        </mxCell>
        <mxCell id="aMwtx3vDjPb2OYbmK0GX-52" value="" style="endArrow=none;html=1;rounded=0;exitX=0;exitY=0.5;exitDx=0;exitDy=0;entryX=1;entryY=0.75;entryDx=0;entryDy=0;" parent="1" source="aMwtx3vDjPb2OYbmK0GX-50" target="aMwtx3vDjPb2OYbmK0GX-48" edge="1">
          <mxGeometry width="50" height="50" relative="1" as="geometry">
            <mxPoint x="825" y="465" as="sourcePoint" />
            <mxPoint x="875" y="415" as="targetPoint" />
          </mxGeometry>
        </mxCell>
        <mxCell id="aMwtx3vDjPb2OYbmK0GX-63" value="Tables" style="rounded=0;whiteSpace=wrap;html=1;align=center;" parent="1" vertex="1">
          <mxGeometry x="1575" y="720" width="87.5" height="30" as="geometry" />
        </mxCell>
        <mxCell id="aMwtx3vDjPb2OYbmK0GX-64" value="Have" style="rhombus;whiteSpace=wrap;html=1;" parent="1" vertex="1">
          <mxGeometry x="1710" y="715" width="65" height="40" as="geometry" />
        </mxCell>
        <mxCell id="aMwtx3vDjPb2OYbmK0GX-65" value="Bills" style="rounded=0;whiteSpace=wrap;html=1;" parent="1" vertex="1">
          <mxGeometry x="1820" y="720" width="95" height="30" as="geometry" />
        </mxCell>
        <mxCell id="aMwtx3vDjPb2OYbmK0GX-66" value="" style="endArrow=none;html=1;rounded=0;exitX=1;exitY=0.5;exitDx=0;exitDy=0;entryX=0;entryY=0.5;entryDx=0;entryDy=0;" parent="1" source="aMwtx3vDjPb2OYbmK0GX-63" target="aMwtx3vDjPb2OYbmK0GX-64" edge="1">
          <mxGeometry width="50" height="50" relative="1" as="geometry">
            <mxPoint x="1582.5" y="685" as="sourcePoint" />
            <mxPoint x="1632.5" y="635" as="targetPoint" />
          </mxGeometry>
        </mxCell>
        <mxCell id="aMwtx3vDjPb2OYbmK0GX-67" value="1" style="edgeLabel;html=1;align=center;verticalAlign=middle;resizable=0;points=[];" parent="aMwtx3vDjPb2OYbmK0GX-66" vertex="1" connectable="0">
          <mxGeometry x="-0.7217" y="2" relative="1" as="geometry">
            <mxPoint as="offset" />
          </mxGeometry>
        </mxCell>
        <mxCell id="aMwtx3vDjPb2OYbmK0GX-68" value="" style="endArrow=none;html=1;rounded=0;exitX=1;exitY=0.5;exitDx=0;exitDy=0;entryX=0;entryY=0.5;entryDx=0;entryDy=0;" parent="1" source="aMwtx3vDjPb2OYbmK0GX-64" target="aMwtx3vDjPb2OYbmK0GX-65" edge="1">
          <mxGeometry width="50" height="50" relative="1" as="geometry">
            <mxPoint x="1842.5" y="675" as="sourcePoint" />
            <mxPoint x="1892.5" y="625" as="targetPoint" />
          </mxGeometry>
        </mxCell>
        <mxCell id="aMwtx3vDjPb2OYbmK0GX-69" value="N" style="edgeLabel;html=1;align=center;verticalAlign=middle;resizable=0;points=[];" parent="aMwtx3vDjPb2OYbmK0GX-68" vertex="1" connectable="0">
          <mxGeometry x="0.6275" y="3" relative="1" as="geometry">
            <mxPoint as="offset" />
          </mxGeometry>
        </mxCell>
        <mxCell id="aMwtx3vDjPb2OYbmK0GX-70" value="Foods" style="rounded=0;whiteSpace=wrap;html=1;align=center;" parent="1" vertex="1">
          <mxGeometry x="1575" y="790" width="87.5" height="30" as="geometry" />
        </mxCell>
        <mxCell id="aMwtx3vDjPb2OYbmK0GX-71" value="Have" style="rhombus;whiteSpace=wrap;html=1;" parent="1" vertex="1">
          <mxGeometry x="1710" y="785" width="65" height="40" as="geometry" />
        </mxCell>
        <mxCell id="aMwtx3vDjPb2OYbmK0GX-72" value="Bills" style="rounded=0;whiteSpace=wrap;html=1;" parent="1" vertex="1">
          <mxGeometry x="1820" y="790" width="95" height="30" as="geometry" />
        </mxCell>
        <mxCell id="aMwtx3vDjPb2OYbmK0GX-73" value="" style="endArrow=none;html=1;rounded=0;exitX=1;exitY=0.5;exitDx=0;exitDy=0;entryX=0;entryY=0.5;entryDx=0;entryDy=0;" parent="1" source="aMwtx3vDjPb2OYbmK0GX-70" target="aMwtx3vDjPb2OYbmK0GX-71" edge="1">
          <mxGeometry width="50" height="50" relative="1" as="geometry">
            <mxPoint x="1582.5" y="755" as="sourcePoint" />
            <mxPoint x="1632.5" y="705" as="targetPoint" />
          </mxGeometry>
        </mxCell>
        <mxCell id="aMwtx3vDjPb2OYbmK0GX-74" value="N" style="edgeLabel;html=1;align=center;verticalAlign=middle;resizable=0;points=[];" parent="aMwtx3vDjPb2OYbmK0GX-73" vertex="1" connectable="0">
          <mxGeometry x="-0.7217" y="2" relative="1" as="geometry">
            <mxPoint as="offset" />
          </mxGeometry>
        </mxCell>
        <mxCell id="aMwtx3vDjPb2OYbmK0GX-75" value="" style="endArrow=none;html=1;rounded=0;exitX=1;exitY=0.5;exitDx=0;exitDy=0;entryX=0;entryY=0.5;entryDx=0;entryDy=0;" parent="1" source="aMwtx3vDjPb2OYbmK0GX-71" target="aMwtx3vDjPb2OYbmK0GX-72" edge="1">
          <mxGeometry width="50" height="50" relative="1" as="geometry">
            <mxPoint x="1842.5" y="745" as="sourcePoint" />
            <mxPoint x="1892.5" y="695" as="targetPoint" />
          </mxGeometry>
        </mxCell>
        <mxCell id="aMwtx3vDjPb2OYbmK0GX-76" value="M" style="edgeLabel;html=1;align=center;verticalAlign=middle;resizable=0;points=[];" parent="aMwtx3vDjPb2OYbmK0GX-75" vertex="1" connectable="0">
          <mxGeometry x="0.6275" y="3" relative="1" as="geometry">
            <mxPoint as="offset" />
          </mxGeometry>
        </mxCell>
        <mxCell id="gJiM3m1yd5UgjX2Ggayf-1" value="&lt;span style=&quot;text-wrap: nowrap;&quot;&gt;Waiter_notifications&lt;/span&gt;" style="rounded=0;whiteSpace=wrap;html=1;" vertex="1" parent="1">
          <mxGeometry x="3980" y="795" width="120" height="40" as="geometry" />
        </mxCell>
        <mxCell id="gJiM3m1yd5UgjX2Ggayf-2" value="&lt;u&gt;notification_id&lt;/u&gt;" style="ellipse;whiteSpace=wrap;html=1;" vertex="1" parent="1">
          <mxGeometry x="3860" y="845" width="100" height="40" as="geometry" />
        </mxCell>
        <mxCell id="gJiM3m1yd5UgjX2Ggayf-3" value="&lt;span style=&quot;text-align: left;&quot;&gt;notification_status&amp;nbsp;&lt;/span&gt;" style="ellipse;whiteSpace=wrap;html=1;" vertex="1" parent="1">
          <mxGeometry x="3985" y="885" width="120" height="40" as="geometry" />
        </mxCell>
        <mxCell id="gJiM3m1yd5UgjX2Ggayf-4" value="" style="endArrow=none;html=1;rounded=0;exitX=1;exitY=0;exitDx=0;exitDy=0;entryX=0;entryY=0.5;entryDx=0;entryDy=0;" edge="1" parent="1" source="gJiM3m1yd5UgjX2Ggayf-2" target="gJiM3m1yd5UgjX2Ggayf-1">
          <mxGeometry width="50" height="50" relative="1" as="geometry">
            <mxPoint x="3970" y="885" as="sourcePoint" />
            <mxPoint x="4020" y="835" as="targetPoint" />
          </mxGeometry>
        </mxCell>
        <mxCell id="gJiM3m1yd5UgjX2Ggayf-5" value="" style="endArrow=none;html=1;rounded=0;exitX=0.423;exitY=0.022;exitDx=0;exitDy=0;entryX=0.5;entryY=1;entryDx=0;entryDy=0;exitPerimeter=0;" edge="1" parent="1" source="gJiM3m1yd5UgjX2Ggayf-3" target="gJiM3m1yd5UgjX2Ggayf-1">
          <mxGeometry width="50" height="50" relative="1" as="geometry">
            <mxPoint x="3970" y="885" as="sourcePoint" />
            <mxPoint x="4020" y="835" as="targetPoint" />
          </mxGeometry>
        </mxCell>
        <mxCell id="gJiM3m1yd5UgjX2Ggayf-6" value="Accounts" style="rounded=0;whiteSpace=wrap;html=1;" vertex="1" parent="1">
          <mxGeometry x="3980" y="380" width="120" height="40" as="geometry" />
        </mxCell>
        <mxCell id="gJiM3m1yd5UgjX2Ggayf-7" value="&lt;u&gt;account_id&lt;/u&gt;" style="ellipse;whiteSpace=wrap;html=1;" vertex="1" parent="1">
          <mxGeometry x="3850" y="365" width="100" height="50" as="geometry" />
        </mxCell>
        <mxCell id="gJiM3m1yd5UgjX2Ggayf-8" value="user_name" style="ellipse;whiteSpace=wrap;html=1;" vertex="1" parent="1">
          <mxGeometry x="3890" y="300" width="80" height="40" as="geometry" />
        </mxCell>
        <mxCell id="gJiM3m1yd5UgjX2Ggayf-9" value="password" style="ellipse;whiteSpace=wrap;html=1;" vertex="1" parent="1">
          <mxGeometry x="3980" y="295" width="100" height="40" as="geometry" />
        </mxCell>
        <mxCell id="gJiM3m1yd5UgjX2Ggayf-10" value="name" style="ellipse;whiteSpace=wrap;html=1;" vertex="1" parent="1">
          <mxGeometry x="3880" y="425" width="90" height="40" as="geometry" />
        </mxCell>
        <mxCell id="gJiM3m1yd5UgjX2Ggayf-11" value="role" style="ellipse;whiteSpace=wrap;html=1;" vertex="1" parent="1">
          <mxGeometry x="3990" y="455" width="80" height="40" as="geometry" />
        </mxCell>
        <mxCell id="gJiM3m1yd5UgjX2Ggayf-12" value="" style="endArrow=none;html=1;rounded=0;exitX=0.964;exitY=0.64;exitDx=0;exitDy=0;exitPerimeter=0;entryX=0;entryY=0.5;entryDx=0;entryDy=0;" edge="1" parent="1" source="gJiM3m1yd5UgjX2Ggayf-7" target="gJiM3m1yd5UgjX2Ggayf-6">
          <mxGeometry width="50" height="50" relative="1" as="geometry">
            <mxPoint x="3960" y="480" as="sourcePoint" />
            <mxPoint x="4010" y="430" as="targetPoint" />
          </mxGeometry>
        </mxCell>
        <mxCell id="gJiM3m1yd5UgjX2Ggayf-13" value="" style="endArrow=none;html=1;rounded=0;exitX=0.75;exitY=0.93;exitDx=0;exitDy=0;exitPerimeter=0;entryX=0;entryY=0;entryDx=0;entryDy=0;" edge="1" parent="1" source="gJiM3m1yd5UgjX2Ggayf-8" target="gJiM3m1yd5UgjX2Ggayf-6">
          <mxGeometry width="50" height="50" relative="1" as="geometry">
            <mxPoint x="3890" y="530" as="sourcePoint" />
            <mxPoint x="3940" y="480" as="targetPoint" />
          </mxGeometry>
        </mxCell>
        <mxCell id="gJiM3m1yd5UgjX2Ggayf-14" value="" style="endArrow=none;html=1;rounded=0;exitX=0.5;exitY=1;exitDx=0;exitDy=0;entryX=0.5;entryY=0;entryDx=0;entryDy=0;" edge="1" parent="1" source="gJiM3m1yd5UgjX2Ggayf-9" target="gJiM3m1yd5UgjX2Ggayf-6">
          <mxGeometry width="50" height="50" relative="1" as="geometry">
            <mxPoint x="3960" y="480" as="sourcePoint" />
            <mxPoint x="4010" y="430" as="targetPoint" />
          </mxGeometry>
        </mxCell>
        <mxCell id="gJiM3m1yd5UgjX2Ggayf-15" value="" style="endArrow=none;html=1;rounded=0;exitX=0.25;exitY=1;exitDx=0;exitDy=0;" edge="1" parent="1" source="gJiM3m1yd5UgjX2Ggayf-6" target="gJiM3m1yd5UgjX2Ggayf-10">
          <mxGeometry width="50" height="50" relative="1" as="geometry">
            <mxPoint x="3990" y="425" as="sourcePoint" />
            <mxPoint x="3870" y="480" as="targetPoint" />
          </mxGeometry>
        </mxCell>
        <mxCell id="gJiM3m1yd5UgjX2Ggayf-16" value="" style="endArrow=none;html=1;rounded=0;exitX=0.5;exitY=1;exitDx=0;exitDy=0;entryX=0.5;entryY=0;entryDx=0;entryDy=0;" edge="1" parent="1" source="gJiM3m1yd5UgjX2Ggayf-6" target="gJiM3m1yd5UgjX2Ggayf-11">
          <mxGeometry width="50" height="50" relative="1" as="geometry">
            <mxPoint x="4070" y="560" as="sourcePoint" />
            <mxPoint x="4120" y="510" as="targetPoint" />
          </mxGeometry>
        </mxCell>
        <mxCell id="gJiM3m1yd5UgjX2Ggayf-17" value="Bills" style="rounded=0;whiteSpace=wrap;html=1;" vertex="1" parent="1">
          <mxGeometry x="4330" y="370" width="120" height="40" as="geometry" />
        </mxCell>
        <mxCell id="gJiM3m1yd5UgjX2Ggayf-18" value="&lt;u&gt;bill_id&lt;/u&gt;" style="ellipse;whiteSpace=wrap;html=1;" vertex="1" parent="1">
          <mxGeometry x="4500" y="405" width="100" height="35" as="geometry" />
        </mxCell>
        <mxCell id="gJiM3m1yd5UgjX2Ggayf-19" value="&lt;span style=&quot;text-align: left; text-wrap: nowrap;&quot;&gt;created_at&amp;nbsp;&lt;/span&gt;" style="ellipse;whiteSpace=wrap;html=1;" vertex="1" parent="1">
          <mxGeometry x="4460" y="300" width="80" height="40" as="geometry" />
        </mxCell>
        <mxCell id="gJiM3m1yd5UgjX2Ggayf-20" value="" style="endArrow=none;html=1;rounded=0;exitX=0;exitY=0;exitDx=0;exitDy=0;entryX=1;entryY=0.75;entryDx=0;entryDy=0;" edge="1" parent="1" source="gJiM3m1yd5UgjX2Ggayf-18" target="gJiM3m1yd5UgjX2Ggayf-17">
          <mxGeometry width="50" height="50" relative="1" as="geometry">
            <mxPoint x="4320" y="460" as="sourcePoint" />
            <mxPoint x="4370" y="410" as="targetPoint" />
          </mxGeometry>
        </mxCell>
        <mxCell id="gJiM3m1yd5UgjX2Ggayf-21" value="" style="endArrow=none;html=1;rounded=0;exitX=0.678;exitY=-0.05;exitDx=0;exitDy=0;entryX=0.238;entryY=0.9;entryDx=0;entryDy=0;exitPerimeter=0;entryPerimeter=0;" edge="1" parent="1" source="gJiM3m1yd5UgjX2Ggayf-17" target="gJiM3m1yd5UgjX2Ggayf-19">
          <mxGeometry width="50" height="50" relative="1" as="geometry">
            <mxPoint x="4430" y="540" as="sourcePoint" />
            <mxPoint x="4480" y="490" as="targetPoint" />
          </mxGeometry>
        </mxCell>
        <mxCell id="gJiM3m1yd5UgjX2Ggayf-22" value="&lt;span style=&quot;text-align: left; text-wrap: nowrap;&quot;&gt;updated_at&amp;nbsp;&lt;/span&gt;" style="ellipse;whiteSpace=wrap;html=1;" vertex="1" parent="1">
          <mxGeometry x="4500" y="350" width="80" height="40" as="geometry" />
        </mxCell>
        <mxCell id="gJiM3m1yd5UgjX2Ggayf-23" value="" style="endArrow=none;html=1;rounded=0;entryX=1;entryY=0.5;entryDx=0;entryDy=0;exitX=0;exitY=0.5;exitDx=0;exitDy=0;" edge="1" parent="1" source="gJiM3m1yd5UgjX2Ggayf-22" target="gJiM3m1yd5UgjX2Ggayf-17">
          <mxGeometry width="50" height="50" relative="1" as="geometry">
            <mxPoint x="4360" y="520" as="sourcePoint" />
            <mxPoint x="4410" y="470" as="targetPoint" />
          </mxGeometry>
        </mxCell>
        <mxCell id="gJiM3m1yd5UgjX2Ggayf-24" value="Create" style="rhombus;whiteSpace=wrap;html=1;" vertex="1" parent="1">
          <mxGeometry x="4170" y="380" width="65" height="40" as="geometry" />
        </mxCell>
        <mxCell id="gJiM3m1yd5UgjX2Ggayf-25" value="" style="endArrow=none;html=1;rounded=0;exitX=1;exitY=0.5;exitDx=0;exitDy=0;entryX=0;entryY=0.5;entryDx=0;entryDy=0;" edge="1" parent="1" source="gJiM3m1yd5UgjX2Ggayf-6" target="gJiM3m1yd5UgjX2Ggayf-24">
          <mxGeometry width="50" height="50" relative="1" as="geometry">
            <mxPoint x="4100" y="400" as="sourcePoint" />
            <mxPoint x="4069.5" y="300" as="targetPoint" />
          </mxGeometry>
        </mxCell>
        <mxCell id="gJiM3m1yd5UgjX2Ggayf-26" value="1" style="edgeLabel;html=1;align=center;verticalAlign=middle;resizable=0;points=[];" vertex="1" connectable="0" parent="gJiM3m1yd5UgjX2Ggayf-25">
          <mxGeometry x="-0.7217" y="2" relative="1" as="geometry">
            <mxPoint as="offset" />
          </mxGeometry>
        </mxCell>
        <mxCell id="gJiM3m1yd5UgjX2Ggayf-27" value="N" style="edgeLabel;html=1;align=center;verticalAlign=middle;resizable=0;points=[];" vertex="1" connectable="0" parent="1">
          <mxGeometry x="4249.142857142857" y="397.0000000000002" as="geometry">
            <mxPoint x="50" y="-1" as="offset" />
          </mxGeometry>
        </mxCell>
        <mxCell id="gJiM3m1yd5UgjX2Ggayf-28" value="" style="endArrow=none;html=1;rounded=0;exitX=1;exitY=0.5;exitDx=0;exitDy=0;entryX=0;entryY=0.75;entryDx=0;entryDy=0;" edge="1" parent="1" source="gJiM3m1yd5UgjX2Ggayf-24" target="gJiM3m1yd5UgjX2Ggayf-17">
          <mxGeometry width="50" height="50" relative="1" as="geometry">
            <mxPoint x="4300" y="475" as="sourcePoint" />
            <mxPoint x="4350" y="425" as="targetPoint" />
          </mxGeometry>
        </mxCell>
        <mxCell id="gJiM3m1yd5UgjX2Ggayf-29" value="Categories" style="rounded=0;whiteSpace=wrap;html=1;" vertex="1" parent="1">
          <mxGeometry x="4603.360000000001" y="762.5" width="120" height="40" as="geometry" />
        </mxCell>
        <mxCell id="gJiM3m1yd5UgjX2Ggayf-30" value="&lt;u&gt;category_id&lt;/u&gt;" style="ellipse;whiteSpace=wrap;html=1;" vertex="1" parent="1">
          <mxGeometry x="4690" y="697.5" width="100" height="40" as="geometry" />
        </mxCell>
        <mxCell id="gJiM3m1yd5UgjX2Ggayf-31" value="category_name" style="ellipse;whiteSpace=wrap;html=1;" vertex="1" parent="1">
          <mxGeometry x="4570" y="687.5" width="110" height="40" as="geometry" />
        </mxCell>
        <mxCell id="gJiM3m1yd5UgjX2Ggayf-32" value="" style="endArrow=none;html=1;rounded=0;exitX=0.277;exitY=1.004;exitDx=0;exitDy=0;entryX=0.667;entryY=-0.086;entryDx=0;entryDy=0;entryPerimeter=0;exitPerimeter=0;" edge="1" parent="1" source="gJiM3m1yd5UgjX2Ggayf-30" target="gJiM3m1yd5UgjX2Ggayf-29">
          <mxGeometry width="50" height="50" relative="1" as="geometry">
            <mxPoint x="4570" y="852.5" as="sourcePoint" />
            <mxPoint x="4660" y="807.5" as="targetPoint" />
          </mxGeometry>
        </mxCell>
        <mxCell id="gJiM3m1yd5UgjX2Ggayf-33" value="" style="endArrow=none;html=1;rounded=0;exitX=0.5;exitY=1;exitDx=0;exitDy=0;entryX=0.5;entryY=0;entryDx=0;entryDy=0;" edge="1" parent="1" source="gJiM3m1yd5UgjX2Ggayf-31" target="gJiM3m1yd5UgjX2Ggayf-29">
          <mxGeometry width="50" height="50" relative="1" as="geometry">
            <mxPoint x="4500" y="902.5" as="sourcePoint" />
            <mxPoint x="4610" y="760.5" as="targetPoint" />
          </mxGeometry>
        </mxCell>
        <mxCell id="gJiM3m1yd5UgjX2Ggayf-34" value="Foods" style="rounded=0;whiteSpace=wrap;html=1;" vertex="1" parent="1">
          <mxGeometry x="4320" y="820" width="120" height="40" as="geometry" />
        </mxCell>
        <mxCell id="gJiM3m1yd5UgjX2Ggayf-35" value="&lt;u&gt;food_id&lt;/u&gt;" style="ellipse;whiteSpace=wrap;html=1;" vertex="1" parent="1">
          <mxGeometry x="4220" y="900" width="80" height="30" as="geometry" />
        </mxCell>
        <mxCell id="gJiM3m1yd5UgjX2Ggayf-36" value="&lt;span style=&quot;text-align: left; text-wrap: nowrap;&quot;&gt;food_name&amp;nbsp;&lt;/span&gt;" style="ellipse;whiteSpace=wrap;html=1;" vertex="1" parent="1">
          <mxGeometry x="4200" y="855" width="80" height="30" as="geometry" />
        </mxCell>
        <mxCell id="gJiM3m1yd5UgjX2Ggayf-37" value="&lt;span style=&quot;text-align: left; text-wrap: nowrap;&quot;&gt;price&amp;nbsp;&lt;/span&gt;" style="ellipse;whiteSpace=wrap;html=1;" vertex="1" parent="1">
          <mxGeometry x="4540" y="840" width="80" height="40" as="geometry" />
        </mxCell>
        <mxCell id="gJiM3m1yd5UgjX2Ggayf-38" value="&lt;span style=&quot;text-align: left; text-wrap: nowrap;&quot;&gt;quantity&amp;nbsp;&lt;/span&gt;" style="ellipse;whiteSpace=wrap;html=1;" vertex="1" parent="1">
          <mxGeometry x="4515" y="890" width="90" height="40" as="geometry" />
        </mxCell>
        <mxCell id="gJiM3m1yd5UgjX2Ggayf-39" value="&lt;span style=&quot;text-align: left; text-wrap: nowrap;&quot;&gt;need_cooking&amp;nbsp;&lt;/span&gt;" style="ellipse;whiteSpace=wrap;html=1;" vertex="1" parent="1">
          <mxGeometry x="4229.139999999999" y="940" width="105" height="40" as="geometry" />
        </mxCell>
        <mxCell id="gJiM3m1yd5UgjX2Ggayf-40" value="" style="endArrow=none;html=1;rounded=0;exitX=0.768;exitY=0.098;exitDx=0;exitDy=0;exitPerimeter=0;entryX=0.25;entryY=1;entryDx=0;entryDy=0;" edge="1" parent="1" source="gJiM3m1yd5UgjX2Ggayf-35" target="gJiM3m1yd5UgjX2Ggayf-34">
          <mxGeometry width="50" height="50" relative="1" as="geometry">
            <mxPoint x="4310" y="910" as="sourcePoint" />
            <mxPoint x="4360" y="860" as="targetPoint" />
          </mxGeometry>
        </mxCell>
        <mxCell id="gJiM3m1yd5UgjX2Ggayf-41" value="" style="endArrow=none;html=1;rounded=0;exitX=1;exitY=0.5;exitDx=0;exitDy=0;entryX=0;entryY=0.5;entryDx=0;entryDy=0;" edge="1" parent="1" source="gJiM3m1yd5UgjX2Ggayf-36" target="gJiM3m1yd5UgjX2Ggayf-34">
          <mxGeometry width="50" height="50" relative="1" as="geometry">
            <mxPoint x="4240" y="960" as="sourcePoint" />
            <mxPoint x="4290" y="910" as="targetPoint" />
          </mxGeometry>
        </mxCell>
        <mxCell id="gJiM3m1yd5UgjX2Ggayf-42" value="" style="endArrow=none;html=1;rounded=0;exitX=-0.019;exitY=0.69;exitDx=0;exitDy=0;entryX=1;entryY=0.5;entryDx=0;entryDy=0;exitPerimeter=0;" edge="1" parent="1" source="gJiM3m1yd5UgjX2Ggayf-37" target="gJiM3m1yd5UgjX2Ggayf-34">
          <mxGeometry width="50" height="50" relative="1" as="geometry">
            <mxPoint x="4310" y="910" as="sourcePoint" />
            <mxPoint x="4360" y="860" as="targetPoint" />
          </mxGeometry>
        </mxCell>
        <mxCell id="gJiM3m1yd5UgjX2Ggayf-43" value="" style="endArrow=none;html=1;rounded=0;exitX=1;exitY=0.5;exitDx=0;exitDy=0;" edge="1" parent="1" source="gJiM3m1yd5UgjX2Ggayf-34" target="gJiM3m1yd5UgjX2Ggayf-38">
          <mxGeometry width="50" height="50" relative="1" as="geometry">
            <mxPoint x="4170" y="960" as="sourcePoint" />
            <mxPoint x="4220" y="910" as="targetPoint" />
          </mxGeometry>
        </mxCell>
        <mxCell id="gJiM3m1yd5UgjX2Ggayf-44" value="" style="endArrow=none;html=1;rounded=0;exitX=0.437;exitY=1.05;exitDx=0;exitDy=0;entryX=0.5;entryY=0;entryDx=0;entryDy=0;exitPerimeter=0;" edge="1" parent="1" source="gJiM3m1yd5UgjX2Ggayf-34" target="gJiM3m1yd5UgjX2Ggayf-39">
          <mxGeometry width="50" height="50" relative="1" as="geometry">
            <mxPoint x="4420" y="990" as="sourcePoint" />
            <mxPoint x="4470" y="940" as="targetPoint" />
          </mxGeometry>
        </mxCell>
        <mxCell id="gJiM3m1yd5UgjX2Ggayf-45" value="&lt;span style=&quot;text-align: left; text-wrap: nowrap;&quot;&gt;food_unit&amp;nbsp;&lt;/span&gt;" style="ellipse;whiteSpace=wrap;html=1;" vertex="1" parent="1">
          <mxGeometry x="4405" y="970" width="80" height="40" as="geometry" />
        </mxCell>
        <mxCell id="gJiM3m1yd5UgjX2Ggayf-46" value="" style="endArrow=none;html=1;rounded=0;entryX=0.75;entryY=1;entryDx=0;entryDy=0;exitX=0.426;exitY=-0.007;exitDx=0;exitDy=0;exitPerimeter=0;" edge="1" parent="1" source="gJiM3m1yd5UgjX2Ggayf-45" target="gJiM3m1yd5UgjX2Ggayf-34">
          <mxGeometry width="50" height="50" relative="1" as="geometry">
            <mxPoint x="4350" y="970" as="sourcePoint" />
            <mxPoint x="4400" y="920" as="targetPoint" />
          </mxGeometry>
        </mxCell>
        <mxCell id="gJiM3m1yd5UgjX2Ggayf-47" value="&lt;span style=&quot;text-align: left; text-wrap: nowrap;&quot;&gt;quantity_sold&amp;nbsp;&lt;/span&gt;" style="ellipse;whiteSpace=wrap;html=1;" vertex="1" parent="1">
          <mxGeometry x="4300" y="980" width="100" height="40" as="geometry" />
        </mxCell>
        <mxCell id="gJiM3m1yd5UgjX2Ggayf-48" value="&lt;span style=&quot;color: rgba(0, 0, 0, 0); font-family: monospace; font-size: 0px; text-align: start; text-wrap: nowrap;&quot;&gt;%3CmxGraphModel%3E%3Croot%3E%3CmxCell%20id%3D%220%22%2F%3E%3CmxCell%20id%3D%221%22%20parent%3D%220%22%2F%3E%3CmxCell%20id%3D%222%22%20value%3D%22%26lt%3Bspan%20style%3D%26quot%3Btext-align%3A%20left%3B%20text-wrap%3A%20nowrap%3B%26quot%3B%26gt%3Bquantity_sold%26amp%3Bnbsp%3B%26lt%3B%2Fspan%26gt%3B%22%20style%3D%22ellipse%3BwhiteSpace%3Dwrap%3Bhtml%3D1%3B%22%20vertex%3D%221%22%20parent%3D%221%22%3E%3CmxGeometry%20x%3D%22725%22%20y%3D%22780%22%20width%3D%22100%22%20height%3D%2240%22%20as%3D%22geometry%22%2F%3E%3C%2FmxCell%3E%3C%2Froot%3E%3C%2FmxGraphModel%3E&lt;/span&gt;&lt;span style=&quot;text-align: left; text-wrap: nowrap;&quot;&gt;food_image&amp;nbsp;&lt;/span&gt;" style="ellipse;whiteSpace=wrap;html=1;" vertex="1" parent="1">
          <mxGeometry x="4480" y="940" width="100" height="40" as="geometry" />
        </mxCell>
        <mxCell id="gJiM3m1yd5UgjX2Ggayf-49" value="" style="endArrow=none;html=1;rounded=0;exitX=1;exitY=0.5;exitDx=0;exitDy=0;entryX=0.261;entryY=0.021;entryDx=0;entryDy=0;entryPerimeter=0;" edge="1" parent="1" source="gJiM3m1yd5UgjX2Ggayf-34" target="gJiM3m1yd5UgjX2Ggayf-48">
          <mxGeometry width="50" height="50" relative="1" as="geometry">
            <mxPoint x="4535" y="1040" as="sourcePoint" />
            <mxPoint x="4585" y="990" as="targetPoint" />
          </mxGeometry>
        </mxCell>
        <mxCell id="gJiM3m1yd5UgjX2Ggayf-50" value="" style="endArrow=none;html=1;rounded=0;entryX=0.597;entryY=1.07;entryDx=0;entryDy=0;entryPerimeter=0;exitX=0.5;exitY=0;exitDx=0;exitDy=0;" edge="1" parent="1" source="gJiM3m1yd5UgjX2Ggayf-47" target="gJiM3m1yd5UgjX2Ggayf-34">
          <mxGeometry width="50" height="50" relative="1" as="geometry">
            <mxPoint x="4335" y="1030" as="sourcePoint" />
            <mxPoint x="4385" y="980" as="targetPoint" />
          </mxGeometry>
        </mxCell>
        <mxCell id="gJiM3m1yd5UgjX2Ggayf-51" value="" style="endArrow=none;html=1;rounded=0;exitX=1;exitY=0;exitDx=0;exitDy=0;entryX=0;entryY=0.5;entryDx=0;entryDy=0;" edge="1" parent="1" source="gJiM3m1yd5UgjX2Ggayf-34" target="gJiM3m1yd5UgjX2Ggayf-69">
          <mxGeometry width="50" height="50" relative="1" as="geometry">
            <mxPoint x="4470" y="750" as="sourcePoint" />
            <mxPoint x="4526.64" y="750" as="targetPoint" />
          </mxGeometry>
        </mxCell>
        <mxCell id="gJiM3m1yd5UgjX2Ggayf-52" value="Have" style="rhombus;whiteSpace=wrap;html=1;" vertex="1" parent="1">
          <mxGeometry x="4385" y="475" width="65" height="40" as="geometry" />
        </mxCell>
        <mxCell id="gJiM3m1yd5UgjX2Ggayf-53" value="" style="endArrow=none;html=1;rounded=0;exitX=0.5;exitY=1;exitDx=0;exitDy=0;entryX=0.5;entryY=0;entryDx=0;entryDy=0;" edge="1" parent="1" source="gJiM3m1yd5UgjX2Ggayf-17" target="gJiM3m1yd5UgjX2Ggayf-52">
          <mxGeometry width="50" height="50" relative="1" as="geometry">
            <mxPoint x="4390" y="675" as="sourcePoint" />
            <mxPoint x="4262.5" y="640" as="targetPoint" />
          </mxGeometry>
        </mxCell>
        <mxCell id="gJiM3m1yd5UgjX2Ggayf-54" value="N" style="edgeLabel;html=1;align=center;verticalAlign=middle;resizable=0;points=[];" vertex="1" connectable="0" parent="gJiM3m1yd5UgjX2Ggayf-53">
          <mxGeometry x="-0.7122" y="-1" relative="1" as="geometry">
            <mxPoint x="11" y="6" as="offset" />
          </mxGeometry>
        </mxCell>
        <mxCell id="gJiM3m1yd5UgjX2Ggayf-55" value="" style="endArrow=none;html=1;rounded=0;entryX=0.578;entryY=-0.1;entryDx=0;entryDy=0;entryPerimeter=0;exitX=0.5;exitY=1;exitDx=0;exitDy=0;" edge="1" parent="1" source="gJiM3m1yd5UgjX2Ggayf-95" target="gJiM3m1yd5UgjX2Ggayf-34">
          <mxGeometry width="50" height="50" relative="1" as="geometry">
            <mxPoint x="4420" y="710" as="sourcePoint" />
            <mxPoint x="4450" y="740" as="targetPoint" />
          </mxGeometry>
        </mxCell>
        <mxCell id="gJiM3m1yd5UgjX2Ggayf-56" value="N" style="edgeLabel;html=1;align=center;verticalAlign=middle;resizable=0;points=[];" vertex="1" connectable="0" parent="gJiM3m1yd5UgjX2Ggayf-55">
          <mxGeometry x="0.6275" y="3" relative="1" as="geometry">
            <mxPoint x="8" y="4" as="offset" />
          </mxGeometry>
        </mxCell>
        <mxCell id="gJiM3m1yd5UgjX2Ggayf-57" value="Tables" style="rounded=0;whiteSpace=wrap;html=1;" vertex="1" parent="1">
          <mxGeometry x="3960" y="605" width="120" height="40" as="geometry" />
        </mxCell>
        <mxCell id="gJiM3m1yd5UgjX2Ggayf-58" value="&lt;u&gt;table_id&lt;/u&gt;" style="ellipse;whiteSpace=wrap;html=1;" vertex="1" parent="1">
          <mxGeometry x="3880" y="545" width="100" height="40" as="geometry" />
        </mxCell>
        <mxCell id="gJiM3m1yd5UgjX2Ggayf-59" value="&lt;span style=&quot;text-align: left;&quot;&gt;table_name&amp;nbsp;&lt;/span&gt;" style="ellipse;whiteSpace=wrap;html=1;" vertex="1" parent="1">
          <mxGeometry x="3990" y="525" width="80" height="40" as="geometry" />
        </mxCell>
        <mxCell id="gJiM3m1yd5UgjX2Ggayf-60" value="&lt;span style=&quot;text-align: left;&quot;&gt;table_status&amp;nbsp;&lt;/span&gt;" style="ellipse;whiteSpace=wrap;html=1;" vertex="1" parent="1">
          <mxGeometry x="3840" y="615" width="100" height="40" as="geometry" />
        </mxCell>
        <mxCell id="gJiM3m1yd5UgjX2Ggayf-61" value="" style="endArrow=none;html=1;rounded=0;exitX=0.964;exitY=0.64;exitDx=0;exitDy=0;exitPerimeter=0;entryX=0.382;entryY=-0.02;entryDx=0;entryDy=0;entryPerimeter=0;" edge="1" parent="1" source="gJiM3m1yd5UgjX2Ggayf-58" target="gJiM3m1yd5UgjX2Ggayf-57">
          <mxGeometry width="50" height="50" relative="1" as="geometry">
            <mxPoint x="3950" y="695" as="sourcePoint" />
            <mxPoint x="4000" y="645" as="targetPoint" />
          </mxGeometry>
        </mxCell>
        <mxCell id="gJiM3m1yd5UgjX2Ggayf-62" value="" style="endArrow=none;html=1;rounded=0;exitX=0.5;exitY=1;exitDx=0;exitDy=0;entryX=0.582;entryY=-0.04;entryDx=0;entryDy=0;entryPerimeter=0;" edge="1" parent="1" source="gJiM3m1yd5UgjX2Ggayf-59" target="gJiM3m1yd5UgjX2Ggayf-57">
          <mxGeometry width="50" height="50" relative="1" as="geometry">
            <mxPoint x="3880" y="745" as="sourcePoint" />
            <mxPoint x="4030" y="595" as="targetPoint" />
          </mxGeometry>
        </mxCell>
        <mxCell id="gJiM3m1yd5UgjX2Ggayf-63" value="" style="endArrow=none;html=1;rounded=0;exitX=0.928;exitY=0.175;exitDx=0;exitDy=0;entryX=0;entryY=0.5;entryDx=0;entryDy=0;exitPerimeter=0;" edge="1" parent="1" source="gJiM3m1yd5UgjX2Ggayf-60" target="gJiM3m1yd5UgjX2Ggayf-57">
          <mxGeometry width="50" height="50" relative="1" as="geometry">
            <mxPoint x="3950" y="695" as="sourcePoint" />
            <mxPoint x="4000" y="645" as="targetPoint" />
          </mxGeometry>
        </mxCell>
        <mxCell id="gJiM3m1yd5UgjX2Ggayf-64" value="Have" style="rhombus;whiteSpace=wrap;html=1;" vertex="1" parent="1">
          <mxGeometry x="4180" y="530" width="65" height="40" as="geometry" />
        </mxCell>
        <mxCell id="gJiM3m1yd5UgjX2Ggayf-65" value="" style="endArrow=none;html=1;rounded=0;exitX=1;exitY=0.5;exitDx=0;exitDy=0;entryX=0;entryY=0.5;entryDx=0;entryDy=0;" edge="1" parent="1" source="gJiM3m1yd5UgjX2Ggayf-57" target="gJiM3m1yd5UgjX2Ggayf-64">
          <mxGeometry width="50" height="50" relative="1" as="geometry">
            <mxPoint x="4100" y="660" as="sourcePoint" />
            <mxPoint x="4150" y="610" as="targetPoint" />
          </mxGeometry>
        </mxCell>
        <mxCell id="gJiM3m1yd5UgjX2Ggayf-66" value="1" style="edgeLabel;html=1;align=center;verticalAlign=middle;resizable=0;points=[];" vertex="1" connectable="0" parent="gJiM3m1yd5UgjX2Ggayf-65">
          <mxGeometry x="-0.552" y="4" relative="1" as="geometry">
            <mxPoint as="offset" />
          </mxGeometry>
        </mxCell>
        <mxCell id="gJiM3m1yd5UgjX2Ggayf-67" value="" style="endArrow=none;html=1;rounded=0;exitX=1;exitY=0.5;exitDx=0;exitDy=0;entryX=0.125;entryY=1.019;entryDx=0;entryDy=0;entryPerimeter=0;" edge="1" parent="1" source="gJiM3m1yd5UgjX2Ggayf-64" target="gJiM3m1yd5UgjX2Ggayf-17">
          <mxGeometry width="50" height="50" relative="1" as="geometry">
            <mxPoint x="4260" y="530" as="sourcePoint" />
            <mxPoint x="4310" y="480" as="targetPoint" />
          </mxGeometry>
        </mxCell>
        <mxCell id="gJiM3m1yd5UgjX2Ggayf-68" value="N" style="edgeLabel;html=1;align=center;verticalAlign=middle;resizable=0;points=[];" vertex="1" connectable="0" parent="gJiM3m1yd5UgjX2Ggayf-67">
          <mxGeometry x="0.6105" y="1" relative="1" as="geometry">
            <mxPoint x="1" as="offset" />
          </mxGeometry>
        </mxCell>
        <mxCell id="gJiM3m1yd5UgjX2Ggayf-69" value="Have" style="rhombus;whiteSpace=wrap;html=1;" vertex="1" parent="1">
          <mxGeometry x="4497.5" y="780" width="65" height="40" as="geometry" />
        </mxCell>
        <mxCell id="gJiM3m1yd5UgjX2Ggayf-70" value="" style="endArrow=none;html=1;rounded=0;exitX=1;exitY=0.5;exitDx=0;exitDy=0;entryX=0;entryY=0.5;entryDx=0;entryDy=0;" edge="1" parent="1" source="gJiM3m1yd5UgjX2Ggayf-69" target="gJiM3m1yd5UgjX2Ggayf-29">
          <mxGeometry width="50" height="50" relative="1" as="geometry">
            <mxPoint x="4743.68" y="845" as="sourcePoint" />
            <mxPoint x="4810" y="905.0000000000002" as="targetPoint" />
          </mxGeometry>
        </mxCell>
        <mxCell id="gJiM3m1yd5UgjX2Ggayf-71" value="N" style="edgeLabel;html=1;align=center;verticalAlign=middle;resizable=0;points=[];" vertex="1" connectable="0" parent="gJiM3m1yd5UgjX2Ggayf-70">
          <mxGeometry x="0.6275" y="3" relative="1" as="geometry">
            <mxPoint x="-145" y="20" as="offset" />
          </mxGeometry>
        </mxCell>
        <mxCell id="gJiM3m1yd5UgjX2Ggayf-72" value="1" style="edgeLabel;html=1;align=center;verticalAlign=middle;resizable=0;points=[];" vertex="1" connectable="0" parent="1">
          <mxGeometry x="4497.4971428571425" y="730" as="geometry">
            <mxPoint x="93" y="51" as="offset" />
          </mxGeometry>
        </mxCell>
        <mxCell id="gJiM3m1yd5UgjX2Ggayf-73" value="Have" style="rhombus;whiteSpace=wrap;html=1;" vertex="1" parent="1">
          <mxGeometry x="4164.139999999999" y="795" width="65" height="40" as="geometry" />
        </mxCell>
        <mxCell id="gJiM3m1yd5UgjX2Ggayf-74" value="" style="endArrow=none;html=1;rounded=0;exitX=1;exitY=0.5;exitDx=0;exitDy=0;entryX=0;entryY=0.5;entryDx=0;entryDy=0;" edge="1" parent="1" source="gJiM3m1yd5UgjX2Ggayf-1" target="gJiM3m1yd5UgjX2Ggayf-73">
          <mxGeometry width="50" height="50" relative="1" as="geometry">
            <mxPoint x="4130" y="770" as="sourcePoint" />
            <mxPoint x="4180" y="720" as="targetPoint" />
          </mxGeometry>
        </mxCell>
        <mxCell id="gJiM3m1yd5UgjX2Ggayf-75" value="" style="endArrow=none;html=1;rounded=0;exitX=1;exitY=0.5;exitDx=0;exitDy=0;entryX=0;entryY=0;entryDx=0;entryDy=0;" edge="1" parent="1" source="gJiM3m1yd5UgjX2Ggayf-73" target="gJiM3m1yd5UgjX2Ggayf-34">
          <mxGeometry width="50" height="50" relative="1" as="geometry">
            <mxPoint x="4250" y="780" as="sourcePoint" />
            <mxPoint x="4300" y="730" as="targetPoint" />
          </mxGeometry>
        </mxCell>
        <mxCell id="gJiM3m1yd5UgjX2Ggayf-76" value="1" style="edgeLabel;html=1;align=center;verticalAlign=middle;resizable=0;points=[];" vertex="1" connectable="0" parent="gJiM3m1yd5UgjX2Ggayf-75">
          <mxGeometry x="0.3625" relative="1" as="geometry">
            <mxPoint x="19" y="-3" as="offset" />
          </mxGeometry>
        </mxCell>
        <mxCell id="gJiM3m1yd5UgjX2Ggayf-77" value="N" style="text;html=1;align=center;verticalAlign=middle;resizable=0;points=[];autosize=1;strokeColor=none;fillColor=none;" vertex="1" parent="1">
          <mxGeometry x="4095" y="790" width="30" height="30" as="geometry" />
        </mxCell>
        <mxCell id="gJiM3m1yd5UgjX2Ggayf-78" value="Have" style="rhombus;whiteSpace=wrap;html=1;" vertex="1" parent="1">
          <mxGeometry x="3987.5" y="700" width="65" height="40" as="geometry" />
        </mxCell>
        <mxCell id="gJiM3m1yd5UgjX2Ggayf-79" value="" style="endArrow=none;html=1;rounded=0;entryX=0.5;entryY=1;entryDx=0;entryDy=0;exitX=0.5;exitY=0;exitDx=0;exitDy=0;" edge="1" parent="1" source="gJiM3m1yd5UgjX2Ggayf-78" target="gJiM3m1yd5UgjX2Ggayf-57">
          <mxGeometry width="50" height="50" relative="1" as="geometry">
            <mxPoint x="3860" y="760" as="sourcePoint" />
            <mxPoint x="3910" y="710" as="targetPoint" />
          </mxGeometry>
        </mxCell>
        <mxCell id="gJiM3m1yd5UgjX2Ggayf-80" value="1" style="edgeLabel;html=1;align=center;verticalAlign=middle;resizable=0;points=[];" vertex="1" connectable="0" parent="gJiM3m1yd5UgjX2Ggayf-79">
          <mxGeometry x="0.4764" y="2" relative="1" as="geometry">
            <mxPoint x="12" y="1" as="offset" />
          </mxGeometry>
        </mxCell>
        <mxCell id="gJiM3m1yd5UgjX2Ggayf-81" value="" style="endArrow=none;html=1;rounded=0;entryX=0.5;entryY=1;entryDx=0;entryDy=0;exitX=0.327;exitY=0.005;exitDx=0;exitDy=0;exitPerimeter=0;" edge="1" parent="1" source="gJiM3m1yd5UgjX2Ggayf-1" target="gJiM3m1yd5UgjX2Ggayf-78">
          <mxGeometry width="50" height="50" relative="1" as="geometry">
            <mxPoint x="4010" y="790" as="sourcePoint" />
            <mxPoint x="4070" y="750" as="targetPoint" />
          </mxGeometry>
        </mxCell>
        <mxCell id="gJiM3m1yd5UgjX2Ggayf-82" value="N" style="edgeLabel;html=1;align=center;verticalAlign=middle;resizable=0;points=[];" vertex="1" connectable="0" parent="gJiM3m1yd5UgjX2Ggayf-81">
          <mxGeometry x="-0.3918" y="1" relative="1" as="geometry">
            <mxPoint x="12" y="2" as="offset" />
          </mxGeometry>
        </mxCell>
        <mxCell id="gJiM3m1yd5UgjX2Ggayf-88" value="" style="endArrow=none;html=1;rounded=0;exitX=0.5;exitY=0;exitDx=0;exitDy=0;entryX=0.606;entryY=0.974;entryDx=0;entryDy=0;entryPerimeter=0;" edge="1" parent="1" source="aMwtx3vDjPb2OYbmK0GX-19" target="aMwtx3vDjPb2OYbmK0GX-1">
          <mxGeometry width="50" height="50" relative="1" as="geometry">
            <mxPoint x="2450" y="760" as="sourcePoint" />
            <mxPoint x="2500" y="710" as="targetPoint" />
          </mxGeometry>
        </mxCell>
        <mxCell id="gJiM3m1yd5UgjX2Ggayf-89" value="M" style="edgeLabel;html=1;align=center;verticalAlign=middle;resizable=0;points=[];" vertex="1" connectable="0" parent="gJiM3m1yd5UgjX2Ggayf-88">
          <mxGeometry x="0.5993" y="-1" relative="1" as="geometry">
            <mxPoint as="offset" />
          </mxGeometry>
        </mxCell>
        <mxCell id="gJiM3m1yd5UgjX2Ggayf-90" value="Orders" style="rounded=0;whiteSpace=wrap;html=1;" vertex="1" parent="1">
          <mxGeometry x="4420" y="570" width="120" height="40" as="geometry" />
        </mxCell>
        <mxCell id="gJiM3m1yd5UgjX2Ggayf-91" value="" style="endArrow=none;html=1;rounded=0;entryX=1;entryY=0.75;entryDx=0;entryDy=0;exitX=0;exitY=0.5;exitDx=0;exitDy=0;" edge="1" parent="1" target="gJiM3m1yd5UgjX2Ggayf-90" source="gJiM3m1yd5UgjX2Ggayf-99">
          <mxGeometry width="50" height="50" relative="1" as="geometry">
            <mxPoint x="4580" y="630" as="sourcePoint" />
            <mxPoint x="4540" y="600" as="targetPoint" />
          </mxGeometry>
        </mxCell>
        <mxCell id="gJiM3m1yd5UgjX2Ggayf-92" value="" style="endArrow=none;html=1;rounded=0;exitX=0.678;exitY=-0.05;exitDx=0;exitDy=0;exitPerimeter=0;entryX=0;entryY=1;entryDx=0;entryDy=0;" edge="1" parent="1" source="gJiM3m1yd5UgjX2Ggayf-90" target="gJiM3m1yd5UgjX2Ggayf-98">
          <mxGeometry width="50" height="50" relative="1" as="geometry">
            <mxPoint x="4600" y="730" as="sourcePoint" />
            <mxPoint x="4560" y="540" as="targetPoint" />
          </mxGeometry>
        </mxCell>
        <mxCell id="gJiM3m1yd5UgjX2Ggayf-93" value="&lt;div style=&quot;text-align: left;&quot;&gt;&lt;span style=&quot;background-color: initial; text-wrap: nowrap;&quot;&gt;price&lt;/span&gt;&lt;/div&gt;" style="ellipse;whiteSpace=wrap;html=1;" vertex="1" parent="1">
          <mxGeometry x="4560" y="545" width="50" height="25" as="geometry" />
        </mxCell>
        <mxCell id="gJiM3m1yd5UgjX2Ggayf-94" value="" style="endArrow=none;html=1;rounded=0;entryX=1;entryY=0.5;entryDx=0;entryDy=0;exitX=0;exitY=0.5;exitDx=0;exitDy=0;" edge="1" parent="1" source="gJiM3m1yd5UgjX2Ggayf-93" target="gJiM3m1yd5UgjX2Ggayf-90">
          <mxGeometry width="50" height="50" relative="1" as="geometry">
            <mxPoint x="4530" y="710" as="sourcePoint" />
            <mxPoint x="4580" y="660" as="targetPoint" />
          </mxGeometry>
        </mxCell>
        <mxCell id="gJiM3m1yd5UgjX2Ggayf-95" value="Have" style="rhombus;whiteSpace=wrap;html=1;" vertex="1" parent="1">
          <mxGeometry x="4405" y="690" width="65" height="40" as="geometry" />
        </mxCell>
        <mxCell id="gJiM3m1yd5UgjX2Ggayf-96" value="" style="endArrow=none;html=1;rounded=0;exitX=0.5;exitY=0;exitDx=0;exitDy=0;entryX=0.351;entryY=0.968;entryDx=0;entryDy=0;entryPerimeter=0;" edge="1" parent="1" source="gJiM3m1yd5UgjX2Ggayf-95" target="gJiM3m1yd5UgjX2Ggayf-90">
          <mxGeometry width="50" height="50" relative="1" as="geometry">
            <mxPoint x="4480" y="680" as="sourcePoint" />
            <mxPoint x="4530" y="630" as="targetPoint" />
          </mxGeometry>
        </mxCell>
        <mxCell id="gJiM3m1yd5UgjX2Ggayf-97" value="" style="endArrow=none;html=1;rounded=0;entryX=0.5;entryY=1;entryDx=0;entryDy=0;exitX=0.25;exitY=0;exitDx=0;exitDy=0;" edge="1" parent="1" source="gJiM3m1yd5UgjX2Ggayf-90" target="gJiM3m1yd5UgjX2Ggayf-52">
          <mxGeometry width="50" height="50" relative="1" as="geometry">
            <mxPoint x="4320" y="630" as="sourcePoint" />
            <mxPoint x="4370" y="580" as="targetPoint" />
          </mxGeometry>
        </mxCell>
        <mxCell id="gJiM3m1yd5UgjX2Ggayf-98" value="&lt;span style=&quot;text-align: left; text-wrap: nowrap;&quot;&gt;&lt;u&gt;order_id&lt;/u&gt;&lt;/span&gt;" style="ellipse;whiteSpace=wrap;html=1;" vertex="1" parent="1">
          <mxGeometry x="4510" y="510" width="70" height="30" as="geometry" />
        </mxCell>
        <mxCell id="gJiM3m1yd5UgjX2Ggayf-99" value="&lt;div style=&quot;text-align: left;&quot;&gt;&lt;span style=&quot;text-wrap: nowrap;&quot;&gt;quantity&lt;/span&gt;&lt;/div&gt;" style="ellipse;whiteSpace=wrap;html=1;" vertex="1" parent="1">
          <mxGeometry x="4570" y="580" width="60" height="25" as="geometry" />
        </mxCell>
        <mxCell id="gJiM3m1yd5UgjX2Ggayf-100" value="&lt;div style=&quot;text-align: left;&quot;&gt;&lt;span style=&quot;text-wrap: nowrap;&quot;&gt;order_status&lt;/span&gt;&lt;/div&gt;" style="ellipse;whiteSpace=wrap;html=1;" vertex="1" parent="1">
          <mxGeometry x="4555" y="620" width="85" height="25" as="geometry" />
        </mxCell>
        <mxCell id="gJiM3m1yd5UgjX2Ggayf-101" value="&lt;div style=&quot;text-align: left;&quot;&gt;&lt;span style=&quot;text-wrap: nowrap;&quot;&gt;note&lt;/span&gt;&lt;/div&gt;" style="ellipse;whiteSpace=wrap;html=1;" vertex="1" parent="1">
          <mxGeometry x="4525" y="650" width="50" height="25" as="geometry" />
        </mxCell>
        <mxCell id="gJiM3m1yd5UgjX2Ggayf-102" value="" style="endArrow=none;html=1;rounded=0;entryX=0.95;entryY=1.063;entryDx=0;entryDy=0;entryPerimeter=0;exitX=0;exitY=0.5;exitDx=0;exitDy=0;" edge="1" parent="1" source="gJiM3m1yd5UgjX2Ggayf-100" target="gJiM3m1yd5UgjX2Ggayf-90">
          <mxGeometry width="50" height="50" relative="1" as="geometry">
            <mxPoint x="4460" y="680" as="sourcePoint" />
            <mxPoint x="4510" y="630" as="targetPoint" />
          </mxGeometry>
        </mxCell>
        <mxCell id="gJiM3m1yd5UgjX2Ggayf-103" value="" style="endArrow=none;html=1;rounded=0;entryX=0.803;entryY=1.063;entryDx=0;entryDy=0;entryPerimeter=0;exitX=0.339;exitY=0.061;exitDx=0;exitDy=0;exitPerimeter=0;" edge="1" parent="1" source="gJiM3m1yd5UgjX2Ggayf-101" target="gJiM3m1yd5UgjX2Ggayf-90">
          <mxGeometry width="50" height="50" relative="1" as="geometry">
            <mxPoint x="4460" y="690" as="sourcePoint" />
            <mxPoint x="4510" y="640" as="targetPoint" />
          </mxGeometry>
        </mxCell>
      </root>
    </mxGraphModel>
  </diagram>
</mxfile>
